<svg version="1.1" id="Layer_1" xmlns="http://www.w3.org/2000/svg" xmlns:xlink="http://www.w3.org/1999/xlink" x="0px" y="0px"
	 width="100%" viewBox="0 0 209 241" enable-background="new 0 0 209 241" xml:space="preserve">
<path fill="#D3141B" opacity="1.000000" stroke="none" 
	d="
M134.000000,242.000000 
	C130.307098,242.000000 126.614182,242.000000 122.583023,241.591736 
	C117.659904,239.838821 113.038574,238.604797 108.503029,237.110397 
	C105.506500,236.123108 97.090958,239.001373 95.000000,242.000000 
	C87.312424,242.000000 79.624847,242.000000 71.711029,241.672302 
	C60.244991,236.823471 51.038960,229.321198 43.202087,220.422821 
	C30.556757,206.064651 19.762548,190.375656 11.419038,173.023636 
	C6.652050,163.109726 3.735658,152.866684 2.917746,141.938629 
	C2.841281,140.916962 1.665411,139.977585 0.999998,139.000000 
	C1.000000,133.645065 1.000000,128.290146 1.415537,122.585800 
	C2.260328,119.402222 2.461571,116.510735 3.157190,113.743530 
	C6.703877,99.634605 11.838638,86.494301 22.451878,75.746849 
	C28.770018,69.348816 36.070137,64.842331 44.186832,62.267963 
	C54.425369,59.020618 65.179924,59.437496 75.773682,61.839752 
	C83.525879,63.597652 91.345757,65.057076 99.582748,66.699883 
	C104.001877,66.775696 107.973732,66.801170 112.335098,66.751999 
	C119.371590,65.176811 125.955093,63.220547 132.680588,62.283676 
	C142.509003,60.914562 152.404831,59.908287 162.247849,62.887844 
	C171.119415,65.573334 178.955597,69.839493 186.314148,75.539314 
	C199.081619,85.428795 206.404465,98.045578 208.076233,114.067802 
	C208.184036,115.100868 209.334549,116.025124 210.000000,117.000000 
	C210.000000,124.687584 210.000000,132.375168 209.646301,140.323761 
	C208.532623,141.765640 207.183975,142.908524 207.104996,144.133270 
	C206.423447,154.701752 202.713638,164.487579 198.434433,173.852951 
	C189.217041,194.025894 177.250366,212.491455 160.771042,227.640900 
	C153.723862,234.119370 146.349854,240.220200 135.889069,240.107224 
	C135.266266,240.100479 134.629990,241.340256 134.000000,242.000000 
M36.185280,155.921463 
	C31.746746,156.905991 30.951143,158.432800 32.797871,162.374054 
	C33.214859,163.263977 33.611450,164.168228 33.943741,165.092361 
	C39.517429,180.593521 50.121590,192.459442 61.958939,203.324371 
	C66.475899,207.470276 69.826340,206.190765 71.784279,199.950150 
	C68.782837,197.381027 65.541809,194.838242 62.565285,192.016464 
	C52.931644,182.883560 45.365696,172.361771 40.866592,159.722412 
	C40.285252,158.089264 38.243698,156.975906 36.185280,155.921463 
z"/>
<path fill="#000000" opacity="1.000000" stroke="none" 
	d="
M210.000000,116.531342 
	C209.334549,116.025124 208.184036,115.100868 208.076233,114.067802 
	C206.404465,98.045578 199.081619,85.428795 186.314148,75.539314 
	C178.955597,69.839493 171.119415,65.573334 162.247849,62.887844 
	C152.404831,59.908287 142.509003,60.914562 132.680588,62.283676 
	C125.955093,63.220547 119.371590,65.176811 112.164917,66.398979 
	C111.911949,62.267696 112.234955,58.415997 112.522575,54.561665 
	C113.729454,38.388680 120.685440,24.941217 131.956726,13.540100 
	C134.938126,10.524359 137.903900,7.565383 133.473999,3.386618 
	C132.993301,2.933173 133.142822,1.811640 133.000000,0.999999 
	C158.608353,1.000000 184.216721,1.000000 210.000000,1.000000 
	C210.000000,39.354050 210.000000,77.708366 210.000000,116.531342 
z"/>
<path fill="#000000" opacity="1.000000" stroke="none" 
	d="
M99.135468,66.649544 
	C91.345757,65.057076 83.525879,63.597652 75.773682,61.839752 
	C65.179924,59.437496 54.425369,59.020618 44.186832,62.267963 
	C36.070137,64.842331 28.770018,69.348816 22.451878,75.746849 
	C11.838638,86.494301 6.703877,99.634605 3.157190,113.743530 
	C2.461571,116.510735 2.260328,119.402222 1.415537,122.118195 
	C1.000000,81.738800 1.000000,41.477604 1.000000,1.000000 
	C42.020641,1.000000 83.041664,1.000000 124.567078,1.351650 
	C120.945717,6.537691 116.283089,11.021223 112.834457,16.298141 
	C108.815178,22.448242 105.857460,29.292105 102.254272,35.595688 
	C96.757286,29.421972 92.231491,22.389086 85.910500,17.863712 
	C79.661407,13.389812 71.805458,9.687259 64.284096,8.805741 
	C52.747353,7.453613 40.889885,8.698090 29.176460,9.082386 
	C25.851610,9.191468 22.554314,10.140401 18.539621,10.824218 
	C21.581411,15.885738 24.341774,20.259077 26.886963,24.754248 
	C35.455158,39.886929 45.537331,52.955200 64.592361,55.273628 
	C76.629539,56.738194 88.332245,56.984669 99.234314,50.515892 
	C99.310982,56.127903 99.223221,61.388725 99.135468,66.649544 
z"/>
<path fill="#000000" opacity="1.000000" stroke="none" 
	d="
M134.468658,242.000000 
	C134.629990,241.340256 135.266266,240.100479 135.889069,240.107224 
	C146.349854,240.220200 153.723862,234.119370 160.771042,227.640900 
	C177.250366,212.491455 189.217041,194.025894 198.434433,173.852951 
	C202.713638,164.487579 206.423447,154.701752 207.104996,144.133270 
	C207.183975,142.908524 208.532623,141.765640 209.646301,140.792389 
	C210.000000,174.583252 210.000000,208.166504 210.000000,242.000000 
	C184.979660,242.000000 159.958496,242.000000 134.468658,242.000000 
z"/>
<path fill="#000000" opacity="1.000000" stroke="none" 
	d="
M0.999998,139.468658 
	C1.665411,139.977585 2.841281,140.916962 2.917746,141.938629 
	C3.735658,152.866684 6.652050,163.109726 11.419038,173.023636 
	C19.762548,190.375656 30.556757,206.064651 43.202087,220.422821 
	C51.038960,229.321198 60.244991,236.823471 71.242386,241.672302 
	C47.725819,242.000000 24.451637,242.000000 1.000000,242.000000 
	C1.000000,207.979309 1.000000,173.958313 0.999998,139.468658 
z"/>
<path fill="#55352A" opacity="1.000000" stroke="none" 
	d="
M99.582741,66.699883 
	C99.223221,61.388725 99.310982,56.127903 99.516434,50.271141 
	C100.569122,45.061775 101.504105,40.448349 102.439095,35.834923 
	C105.857460,29.292105 108.815178,22.448242 112.834457,16.298141 
	C116.283089,11.021223 120.945717,6.537691 125.035736,1.351650 
	C127.370552,1.000000 129.741104,1.000000 132.555847,0.999999 
	C133.142822,1.811640 132.993301,2.933173 133.473999,3.386618 
	C137.903900,7.565383 134.938126,10.524359 131.956726,13.540100 
	C120.685440,24.941217 113.729454,38.388680 112.522575,54.561665 
	C112.234955,58.415997 111.911949,62.267696 111.775406,66.473625 
	C107.973732,66.801170 104.001877,66.775696 99.582741,66.699883 
z"/>
<path fill="#000000" opacity="1.000000" stroke="none" 
	d="
M95.468658,242.000000 
	C97.090958,239.001373 105.506500,236.123108 108.503029,237.110397 
	C113.038574,238.604797 117.659904,239.838821 122.122391,241.591736 
	C113.312439,242.000000 104.624870,242.000000 95.468658,242.000000 
z"/>
<path fill="#000000" opacity="1.000000" stroke="none" 
	d="
M36.531914,155.771606 
	C38.243698,156.975906 40.285252,158.089264 40.866592,159.722412 
	C45.365696,172.361771 52.931644,182.883560 62.565285,192.016464 
	C65.541809,194.838242 68.782837,197.381027 71.784279,199.950150 
	C69.826340,206.190765 66.475899,207.470276 61.958939,203.324371 
	C50.121590,192.459442 39.517429,180.593521 33.943741,165.092361 
	C33.611450,164.168228 33.214859,163.263977 32.797871,162.374054 
	C30.951143,158.432800 31.746746,156.905991 36.531914,155.771606 
z"/>
<path fill="#7DB820" opacity="1.000000" stroke="none" 
	d="
M102.254272,35.595688 
	C101.504105,40.448349 100.569122,45.061775 99.352013,49.919952 
	C88.332245,56.984669 76.629539,56.738194 64.592361,55.273628 
	C45.537331,52.955200 35.455158,39.886929 26.886963,24.754248 
	C24.341774,20.259077 21.581411,15.885738 18.539621,10.824218 
	C22.554314,10.140401 25.851610,9.191468 29.176460,9.082386 
	C40.889885,8.698090 52.747353,7.453613 64.284096,8.805741 
	C71.805458,9.687259 79.661407,13.389812 85.910500,17.863712 
	C92.231491,22.389086 96.757286,29.421972 102.254272,35.595688 
M39.965508,19.605938 
	C39.797745,19.700539 39.629982,19.795139 39.462219,19.889742 
	C39.603477,19.966373 39.744736,20.043007 40.315132,20.636097 
	C55.233288,31.188898 72.116287,37.214256 89.516617,42.057995 
	C74.891975,30.567169 57.876453,24.401220 39.965508,19.605938 
M92.509468,43.490875 
	C92.509468,43.490875 92.476936,43.492218 92.509468,43.490875 
z"/>
<path fill="#557B18" opacity="1.000000" stroke="none" 
	d="
M40.166176,19.779043 
	C57.876453,24.401220 74.891975,30.567169 89.516617,42.057995 
	C72.116287,37.214256 55.233288,31.188898 40.170834,20.292904 
	C40.026535,19.949711 40.166176,19.779043 40.166176,19.779043 
z"/>
<path fill="#557B18" opacity="1.000000" stroke="none" 
	d="
M39.956264,20.034676 
	C39.744736,20.043007 39.603477,19.966373 39.462219,19.889742 
	C39.629982,19.795139 39.797745,19.700539 40.065842,19.692490 
	C40.166176,19.779043 40.026535,19.949711 39.956264,20.034676 
z"/>
<path fill="#557B18" opacity="1.000000" stroke="none" 
	d="
M92.493202,43.491547 
	C92.476936,43.492218 92.509468,43.490875 92.493202,43.491547 
z"/>
</svg>