<svg version="1.1" id="Layer_1" xmlns="http://www.w3.org/2000/svg" xmlns:xlink="http://www.w3.org/1999/xlink" x="0px" y="0px"
	 width="100%" viewBox="0 0 878 358" enable-background="new 0 0 878 358" xml:space="preserve">
<path fill="#FFFFFF" opacity="1.000000" stroke="none" 
	d="
M1.000000,101.000000 
	C1.000000,67.680092 1.000000,34.360184 1.000001,1.046615 
	C293.666656,1.052955 586.333313,1.052955 879.000000,1.052955 
	C879.000000,34.092617 879.000000,67.079323 878.534607,100.535942 
	C876.239685,101.006447 874.410095,101.006958 872.580566,101.007675 
	C866.008423,101.010239 866.006470,101.010262 866.002808,107.359100 
	C865.984314,139.625565 865.966980,171.892029 865.514526,204.080841 
	C863.166931,203.880875 861.254089,203.758560 858.863403,203.605667 
	C858.863403,187.849335 858.863403,172.527512 858.863403,156.825363 
	C850.572876,156.825363 842.796387,156.825363 835.015503,156.526398 
	C835.008911,155.828796 835.006714,155.430145 835.464600,154.936493 
	C843.444031,154.841476 850.963379,154.841476 859.344849,154.841476 
	C852.215271,142.530289 845.659302,131.209641 838.908691,119.552803 
	C837.383789,121.806252 836.368713,123.306290 835.268860,124.293190 
	C835.124695,117.621490 834.918091,111.459366 835.066589,105.305824 
	C835.143555,102.114784 834.193237,100.937569 830.846191,100.947952 
	C798.209595,101.049240 765.572571,101.041580 732.935852,100.955009 
	C729.836792,100.946785 728.916077,102.042725 728.953918,105.028412 
	C729.084778,115.350662 729.056763,125.676155 728.948975,135.998932 
	C728.931274,137.696442 728.208008,139.386566 727.534790,140.882996 
	C723.265686,133.751404 719.272522,126.816887 715.034668,119.457352 
	C709.504700,128.787292 704.443726,137.326111 699.289551,145.349213 
	C699.130066,132.009689 698.920959,119.184090 699.082214,106.363152 
	C699.132263,102.387199 698.249695,100.857719 693.898621,100.907486 
	C673.578247,101.139870 653.253967,101.023277 632.620850,101.001175 
	C631.896973,100.991707 631.483215,101.012489 630.600586,101.021652 
	C626.321472,101.057716 622.511292,101.105400 618.314209,100.987122 
	C618.591553,98.166618 619.255676,95.512070 620.100281,92.136215 
	C616.802734,90.357796 612.992493,88.302895 609.132202,86.221008 
	C607.637024,88.987694 606.480713,91.127296 605.180725,93.532738 
	C601.229431,91.901985 597.623047,90.413574 594.179016,88.992165 
	C595.035828,86.068344 595.754639,83.615593 596.556030,80.880898 
	C591.919250,79.609703 587.971924,78.527534 583.859375,77.400078 
	C582.960693,80.316460 582.240967,82.651932 581.405334,85.363693 
	C577.548035,84.702164 573.849121,84.067795 569.925903,83.394966 
	C569.925903,80.555649 569.925903,77.983559 569.925903,75.151825 
	C565.606384,74.835381 561.544861,74.537849 557.207886,74.220131 
	C557.019714,77.287323 556.861572,79.864876 556.681396,82.802063 
	C552.508545,82.802063 548.629700,82.802063 544.541199,82.802063 
	C544.163879,80.211159 543.817383,77.832069 543.411255,75.043816 
	C538.687500,75.865059 534.534302,76.587120 530.226196,77.336090 
	C530.774048,80.414772 531.206909,82.847176 531.684082,85.528618 
	C527.881165,86.639778 524.134644,87.734467 520.214844,88.879791 
	C519.164429,86.153923 518.231812,83.733719 517.174377,80.989632 
	C512.855896,82.825478 508.823029,84.539909 504.777924,86.259537 
	C506.017914,89.144341 507.035400,91.511520 508.087158,93.958450 
	C504.416107,95.970093 501.086456,97.794647 497.645203,99.680359 
	C496.048950,97.355644 494.574310,95.208038 492.762695,92.569679 
	C489.027100,95.517288 485.547394,98.263016 481.594421,101.005775 
	C474.454956,101.005096 467.774994,101.267181 461.127289,100.917122 
	C456.791504,100.688820 455.783417,102.329445 455.917267,106.348999 
	C456.188965,114.505936 455.989838,122.678543 455.652466,130.958923 
	C453.048187,134.801620 450.776245,138.530090 448.442261,142.360367 
	C451.375916,143.915359 453.556274,145.071075 456.016846,146.375305 
	C454.430389,150.116852 452.915802,153.688965 451.343811,157.396408 
	C448.610107,156.538055 446.274750,155.804779 443.454346,154.919189 
	C442.167816,159.265381 440.964966,163.328934 439.671326,167.699097 
	C442.682404,168.628693 445.295471,169.435394 447.818939,170.214447 
	C447.050751,174.313217 446.354156,178.029938 445.635712,181.863281 
	C442.804352,181.702484 440.239349,181.556824 437.259552,181.387604 
	C437.259552,186.207520 437.259552,190.590073 437.259552,194.977875 
	C440.009186,195.125336 442.447968,195.256134 445.015198,195.393814 
	C445.333527,199.552139 445.622620,203.328384 445.929657,207.339432 
	C443.052734,207.819305 440.526398,208.240707 437.602478,208.728409 
	C438.326843,213.320145 438.985077,217.492645 439.647980,221.694885 
	C442.883942,221.160034 445.405457,220.743256 448.021973,220.310776 
	C449.221436,224.446732 450.265930,228.048386 451.321747,231.688950 
	C448.520813,232.849808 446.157013,233.829498 443.475220,234.940979 
	C445.409790,239.391968 447.094299,243.267593 448.802856,247.198563 
	C451.265930,246.180893 453.090179,245.427170 455.075623,245.080261 
	C455.512726,249.703308 455.788635,253.919525 456.004578,258.461670 
	C456.002594,259.440643 456.060577,260.093658 456.075531,261.230713 
	C456.011017,286.386108 455.989532,311.057465 455.507690,335.808868 
	C445.043091,335.836609 435.038849,335.784302 425.031647,335.280640 
	C425.028656,257.036774 425.028656,179.244293 425.028656,100.971687 
	C421.222046,100.971687 418.250824,100.971687 415.190399,100.530067 
	C414.296173,95.737526 413.747314,91.318741 412.617004,87.054039 
	C411.392700,82.434616 408.230713,77.914825 408.372253,73.429146 
	C408.721161,62.369411 406.489563,52.039413 402.922607,41.754726 
	C399.418518,31.651363 396.269592,21.424810 392.582001,10.073903 
	C388.664673,22.277798 385.192810,33.192692 381.654114,44.085865 
	C378.989075,52.289658 376.224243,60.358139 376.707611,69.301537 
	C376.939117,73.585518 375.281128,77.998550 374.307068,82.314354 
	C372.898682,88.554337 371.334229,94.759087 369.480164,101.029236 
	C354.338104,101.056763 339.548859,101.204773 324.768463,100.908897 
	C320.225769,100.817955 318.871704,102.031921 318.897461,106.696838 
	C319.093323,142.162857 319.024841,177.630493 318.949554,213.097427 
	C318.945282,215.115875 318.158203,217.132645 317.324707,219.158722 
	C315.275360,219.167236 313.636719,219.167236 311.506653,219.167236 
	C311.506653,222.808136 311.506653,226.078979 311.506653,229.481659 
	C304.658173,229.481659 298.308960,229.481659 291.692474,229.481659 
	C291.692474,226.772415 291.987091,224.397888 291.572906,222.154236 
	C291.353210,220.964157 289.902985,220.001236 289.006348,218.471344 
	C289.002411,180.894943 288.913177,143.782516 289.107544,106.671585 
	C289.132141,101.975662 287.719482,100.881638 283.220184,100.908043 
	C251.767639,101.092682 220.312698,101.116615 188.860687,100.891121 
	C183.912994,100.855652 182.866776,102.420341 182.889740,107.086502 
	C183.073074,144.363968 182.990891,181.642746 182.569000,219.014633 
	C181.375626,220.053940 180.078705,220.927460 179.936432,221.960052 
	C179.605453,224.362305 179.830963,226.841217 179.830963,229.578217 
	C171.826431,229.578217 164.292374,229.578217 156.430267,229.578217 
	C156.347412,227.752853 156.213135,226.137619 156.210587,224.522171 
	C156.192688,213.224426 156.263687,201.925934 156.133392,190.629669 
	C156.114746,189.012878 155.165131,187.406845 155.077911,185.396271 
	C155.659500,184.634521 155.809570,184.272308 155.968597,183.535095 
	C154.293808,178.111420 152.610062,173.062729 151.238464,167.731796 
	C151.698624,166.143921 151.973663,164.838470 151.975601,163.532608 
	C152.003815,144.394608 151.867294,125.255028 152.094101,106.119659 
	C152.145294,101.800392 150.651276,100.908836 146.658447,100.928909 
	C117.036835,101.077797 87.414131,101.009583 57.791763,101.009560 
	C45.828114,101.009552 45.828114,101.009560 45.893593,113.423470 
	C37.180260,121.125816 34.479099,131.548584 30.618631,142.518570 
	C36.196369,142.518570 41.085629,142.518570 45.949917,142.780121 
	C45.934391,143.566422 45.943832,144.091156 45.497108,144.705048 
	C41.048203,144.807373 37.026836,144.552521 33.077721,144.974213 
	C31.630333,145.128784 29.571890,146.634033 29.144184,147.959412 
	C27.774130,152.204941 26.973379,156.641571 26.065699,161.027771 
	C20.523373,187.810059 18.366362,214.978790 17.312321,242.229202 
	C16.109491,273.326355 17.318699,304.376709 20.571011,335.737854 
	C18.591457,335.737854 16.810490,335.737854 15.026257,335.286102 
	C15.016500,259.374054 15.010037,183.913727 15.003285,108.453423 
	C15.003166,107.120796 14.910867,105.781105 15.016427,104.457047 
	C15.225137,101.839226 14.043772,100.888786 11.493341,100.978752 
	C7.999658,101.101982 4.498153,101.003471 1.000000,101.000000 
z"/>
<path fill="#3F3F3F" opacity="1.000000" stroke="none" 
	d="
M631.069519,101.033264 
	C631.483215,101.012489 631.896973,100.991707 632.764160,101.307465 
	C636.076599,104.138565 638.935608,106.633118 641.949585,109.262871 
	C639.951294,111.626526 638.291382,113.589966 636.488525,115.722435 
	C639.196777,118.782295 641.693542,121.603142 644.249756,124.491196 
	C646.658020,122.739258 648.735229,121.228127 651.111938,119.499161 
	C653.823242,123.358101 656.251770,126.814682 658.791199,130.429077 
	C656.112732,132.293671 653.986023,133.774155 651.852295,135.259506 
	C653.907593,138.862656 655.778809,142.143051 657.727600,145.559448 
	C660.391663,144.450500 662.763489,143.463211 665.467163,142.337769 
	C667.296021,146.750565 668.904602,150.631927 670.557983,154.621246 
	C667.598572,155.820602 665.336609,156.737274 662.701355,157.805267 
	C663.930054,161.792419 665.073364,165.502274 666.191589,169.130936 
	C674.871094,167.800507 674.893738,167.798019 675.843506,176.442047 
	C676.001892,177.883606 675.865845,179.357529 675.865845,180.966370 
	C673.370178,181.425949 670.968445,181.868210 668.237244,182.371155 
	C668.496765,186.320694 668.742065,190.053970 669.004639,194.049927 
	C671.835205,194.184998 674.395142,194.307144 677.349121,194.448105 
	C677.117981,199.220444 676.913086,203.451660 676.695374,207.946259 
	C673.490845,207.662109 670.934875,207.435455 668.344238,207.205734 
	C667.625854,211.308762 666.977051,215.014511 666.270935,219.047302 
	C668.990295,219.794830 671.468994,220.476227 674.390198,221.279266 
	C673.110840,225.711823 671.933044,229.792252 670.706299,234.042526 
	C667.761780,233.189545 665.279785,232.470535 662.616943,231.699142 
	C661.071045,235.594635 659.692993,239.067230 658.263672,242.669083 
	C660.822021,244.125870 663.047607,245.393188 665.539307,246.811996 
	C663.277588,250.906250 661.235046,254.603638 659.107239,258.455505 
	C656.318237,256.857574 654.200439,255.644211 651.792236,254.264450 
	C649.411987,257.619019 647.164246,260.786835 644.882446,264.002563 
	C647.193848,266.006805 649.148743,267.701965 651.315063,269.580383 
	C648.145447,273.070923 645.299438,276.205170 642.340759,279.463440 
	C639.924683,277.291443 638.011353,275.571472 636.045532,273.804260 
	C632.974915,276.637390 630.203125,279.194763 627.273865,281.897400 
	C628.999512,284.187134 630.544922,286.237793 632.322998,288.597137 
	C628.444092,291.330597 624.974731,293.775513 621.348145,296.331238 
	C619.574768,293.824097 618.084045,291.716522 616.512878,289.495270 
	C612.880371,291.509430 609.556519,293.352417 606.159302,295.236115 
	C607.236511,297.821381 608.224854,300.193420 609.396912,303.006226 
	C605.140930,304.785217 601.247131,306.412811 597.697144,307.896729 
	C595.900757,305.178864 594.465027,303.006683 592.628845,300.828918 
	C589.094788,301.753204 585.961243,302.683105 582.703674,303.649750 
	C583.128174,306.451599 583.515991,309.011200 583.921204,311.685791 
	C581.866943,312.238342 580.129578,312.705658 578.383179,313.175415 
	C578.383179,320.681580 578.383179,328.089630 578.383179,335.708008 
	C583.423401,335.708008 588.197388,335.708008 593.433716,335.799316 
	C625.090820,335.890625 656.285645,335.890625 688.057617,335.890625 
	C688.057617,318.742645 688.057617,302.068329 688.057617,284.888550 
	C692.093628,284.888550 695.554016,284.888550 699.475708,284.971191 
	C709.620239,285.000763 719.303406,284.947723 729.449707,284.977051 
	C738.216003,285.067322 746.519165,285.096710 754.822205,285.079254 
	C781.552979,285.023071 808.283691,284.949615 835.475891,284.965149 
	C845.937195,285.120514 855.937012,285.193542 865.925415,285.718445 
	C865.913879,302.657745 865.913879,319.145233 865.913879,336.000000 
	C870.761230,336.000000 874.880615,336.000000 879.000000,336.000000 
	C879.000000,339.692902 879.000000,343.385834 878.543091,347.443726 
	C877.419922,347.798645 876.753723,347.779694 876.087463,347.779663 
	C585.884216,347.778290 295.681000,347.777863 5.477789,347.787231 
	C3.985190,347.787292 2.492596,347.926025 1.000000,348.000000 
	C1.000000,344.307098 1.000000,340.614166 1.464055,336.428741 
	C6.295248,335.870117 10.662385,335.803986 15.029522,335.737854 
	C16.810490,335.737854 18.591457,335.737854 20.571011,335.737854 
	C17.318699,304.376709 16.109491,273.326355 17.312321,242.229202 
	C18.366362,214.978790 20.523373,187.810059 26.065699,161.027771 
	C26.973379,156.641571 27.774130,152.204941 29.144184,147.959412 
	C29.571890,146.634033 31.630333,145.128784 33.077721,144.974213 
	C37.026836,144.552521 41.048203,144.807373 45.959404,144.804291 
	C50.709339,144.826370 54.541504,144.797073 58.372108,144.860962 
	C63.014206,144.938385 69.110085,143.354202 71.901894,145.688416 
	C74.911636,148.204819 75.108040,154.365082 76.049728,159.032944 
	C85.730225,207.018387 86.819809,255.518387 84.432938,304.201538 
	C83.922195,314.618683 82.953705,325.013397 82.189644,335.506958 
	C90.459442,335.506958 98.482018,335.506958 106.848343,335.506958 
	C106.848343,285.653412 106.848343,236.224228 106.848343,185.975067 
	C122.133675,185.975067 137.070862,185.975067 152.395142,186.043915 
	C153.068497,185.782516 153.354736,185.452255 153.712769,185.289917 
	C154.069763,185.582321 154.357025,185.694977 154.646378,185.795822 
	C155.165131,187.406845 156.114746,189.012878 156.133392,190.629669 
	C156.263687,201.925934 156.192688,213.224426 156.210587,224.522171 
	C156.213135,226.137619 156.347412,227.752853 156.430267,229.578217 
	C164.292374,229.578217 171.826431,229.578217 179.830963,229.578217 
	C179.830963,226.841217 179.605453,224.362305 179.936432,221.960052 
	C180.078705,220.927460 181.375626,220.053940 182.987823,219.114136 
	C184.581650,220.244293 185.810989,221.298691 185.988388,222.507462 
	C186.333740,224.860916 186.089554,227.300858 186.089554,229.570358 
	C193.186478,229.570358 199.439957,229.570358 206.125702,229.570358 
	C206.125702,226.011826 206.125702,222.757385 206.125702,219.496811 
	C208.452515,219.496811 210.328171,219.496811 212.765442,219.496811 
	C212.765442,223.070648 212.765442,226.298965 212.765442,229.478699 
	C219.546738,229.478699 225.749374,229.478699 232.492889,229.478699 
	C232.492889,225.851425 232.492889,222.620956 232.492889,219.393433 
	C234.825439,219.393433 236.593643,219.393433 238.882050,219.393433 
	C238.882050,222.863983 238.882050,226.107956 238.882050,229.607483 
	C245.633530,229.607483 251.863190,229.607483 258.665833,229.607483 
	C258.665833,226.162628 258.665833,222.929123 258.665833,219.495880 
	C261.116577,219.495880 262.992432,219.495880 264.991943,219.495880 
	C265.157227,223.078674 265.307068,226.327530 265.455383,229.543030 
	C272.189606,229.543030 278.420837,229.543030 284.962952,229.543030 
	C284.962952,227.230637 285.157715,225.230881 284.919098,223.284256 
	C284.521484,220.040833 285.819153,218.669037 289.008240,218.935776 
	C289.902985,220.001236 291.353210,220.964157 291.572906,222.154236 
	C291.987091,224.397888 291.692474,226.772415 291.692474,229.481659 
	C298.308960,229.481659 304.658173,229.481659 311.506653,229.481659 
	C311.506653,226.078979 311.506653,222.808136 311.506653,219.167236 
	C313.636719,219.167236 315.275360,219.167236 317.413391,219.602142 
	C317.912750,223.153534 317.912750,226.270004 317.912750,229.473633 
	C324.930511,229.473633 331.296814,229.473633 338.210114,229.473633 
	C338.210114,225.827286 338.210114,222.594604 338.210114,219.491272 
	C340.541138,219.491272 342.296021,219.491272 344.218048,219.491272 
	C344.389801,223.080841 344.546326,226.352509 344.696350,229.488281 
	C352.713562,229.488281 360.273071,229.488281 368.309448,229.488281 
	C368.309448,208.693985 368.309448,188.296738 368.309448,168.107346 
	C384.881226,168.107346 400.957214,168.107346 417.556702,168.107346 
	C417.556702,224.223175 417.556702,279.949097 417.556702,335.731995 
	C420.403015,335.731995 422.718811,335.731995 425.034637,335.731995 
	C435.038849,335.784302 445.043091,335.836609 455.971375,335.895203 
	C483.135498,335.901489 509.375519,335.901489 535.838623,335.901489 
	C535.838623,325.943878 535.904480,316.787720 535.757324,307.635010 
	C535.738403,306.458893 534.613037,305.300568 534.000244,304.134003 
	C533.310608,305.074890 532.428650,305.932617 531.977295,306.976532 
	C531.332336,308.468140 531.002625,310.096008 530.428772,312.035736 
	C526.151855,310.822144 522.096375,309.671417 517.782898,308.447479 
	C518.599060,305.435364 519.271667,302.953247 519.986084,300.316559 
	C516.252747,298.767303 512.776184,297.324615 509.096558,295.797638 
	C507.715668,298.321991 506.472717,300.594116 505.020203,303.249390 
	C501.046417,301.047394 497.326294,298.985931 493.404999,296.813019 
	C494.876801,294.107269 496.114288,291.832275 497.454285,289.368835 
	C494.141785,287.068451 491.034088,284.910278 487.772400,282.645172 
	C485.877747,284.767242 484.170837,286.679077 482.147125,288.945709 
	C478.660278,285.779999 475.519257,282.928284 472.295715,280.001678 
	C474.377808,277.723145 476.035126,275.909454 477.951965,273.811737 
	C475.157349,270.739441 472.532013,267.853241 469.920654,264.982422 
	C467.545776,266.718994 465.564240,268.167938 463.314148,269.813263 
	C460.816132,266.665741 458.467346,263.706238 456.118561,260.746704 
	C456.060577,260.093658 456.002594,259.440643 456.346130,258.377319 
	C458.539673,256.829559 460.331696,255.692047 462.321838,254.428772 
	C460.519989,251.101044 458.947601,248.036621 457.172760,245.094299 
	C456.909882,244.658493 455.691040,244.799362 454.914459,244.673431 
	C453.090179,245.427170 451.265930,246.180893 448.802856,247.198563 
	C447.094299,243.267593 445.409790,239.391968 443.475220,234.940979 
	C446.157013,233.829498 448.520813,232.849808 451.321747,231.688950 
	C450.265930,228.048386 449.221436,224.446732 448.021973,220.310776 
	C445.405457,220.743256 442.883942,221.160034 439.647980,221.694885 
	C438.985077,217.492645 438.326843,213.320145 437.602478,208.728409 
	C440.526398,208.240707 443.052734,207.819305 445.929657,207.339432 
	C445.622620,203.328384 445.333527,199.552139 445.015198,195.393814 
	C442.447968,195.256134 440.009186,195.125336 437.259552,194.977875 
	C437.259552,190.590073 437.259552,186.207520 437.259552,181.387604 
	C440.239349,181.556824 442.804352,181.702484 445.635712,181.863281 
	C446.354156,178.029938 447.050751,174.313217 447.818939,170.214447 
	C445.295471,169.435394 442.682404,168.628693 439.671326,167.699097 
	C440.964966,163.328934 442.167816,159.265381 443.454346,154.919189 
	C446.274750,155.804779 448.610107,156.538055 451.343811,157.396408 
	C452.915802,153.688965 454.430389,150.116852 456.016846,146.375305 
	C453.556274,145.071075 451.375916,143.915359 448.442261,142.360367 
	C450.776245,138.530090 453.048187,134.801620 455.927094,131.193375 
	C458.467499,132.488464 460.400970,133.663315 462.384827,134.868790 
	C464.821472,131.412521 466.992401,128.333160 469.278595,125.090324 
	C467.085510,123.201378 465.113159,121.502518 462.902313,119.598274 
	C466.004395,116.147926 468.844391,112.989113 471.830444,109.667816 
	C474.119019,111.737999 476.035553,113.471649 478.069214,115.311249 
	C481.163391,112.535851 483.979156,110.010201 487.085907,107.223534 
	C485.369019,105.097267 483.718353,103.053001 482.067657,101.008743 
	C485.547394,98.263016 489.027100,95.517288 492.762695,92.569679 
	C494.574310,95.208038 496.048950,97.355644 497.645203,99.680359 
	C501.086456,97.794647 504.416107,95.970093 508.087158,93.958450 
	C507.035400,91.511520 506.017914,89.144341 504.777924,86.259537 
	C508.823029,84.539909 512.855896,82.825478 517.174377,80.989632 
	C518.231812,83.733719 519.164429,86.153923 520.214844,88.879791 
	C524.134644,87.734467 527.881165,86.639778 531.684082,85.528618 
	C531.206909,82.847176 530.774048,80.414772 530.226196,77.336090 
	C534.534302,76.587120 538.687500,75.865059 543.411255,75.043816 
	C543.817383,77.832069 544.163879,80.211159 544.541199,82.802063 
	C548.629700,82.802063 552.508545,82.802063 556.681396,82.802063 
	C556.861572,79.864876 557.019714,77.287323 557.207886,74.220131 
	C561.544861,74.537849 565.606384,74.835381 569.925903,75.151825 
	C569.925903,77.983559 569.925903,80.555649 569.925903,83.394966 
	C573.849121,84.067795 577.548035,84.702164 581.405334,85.363693 
	C582.240967,82.651932 582.960693,80.316460 583.859375,77.400078 
	C587.971924,78.527534 591.919250,79.609703 596.556030,80.880898 
	C595.754639,83.615593 595.035828,86.068344 594.179016,88.992165 
	C597.623047,90.413574 601.229431,91.901985 605.180725,93.532738 
	C606.480713,91.127296 607.637024,88.987694 609.132202,86.221008 
	C612.992493,88.302895 616.802734,90.357796 620.100281,92.136215 
	C619.255676,95.512070 618.591553,98.166618 618.508057,101.278641 
	C621.502930,103.404320 623.917114,105.072525 626.648560,106.959915 
	C628.174133,104.914749 629.621826,102.974007 631.069519,101.033264 
M541.965698,182.751389 
	C542.209656,182.719940 542.453674,182.688477 542.697632,182.657028 
	C542.518250,182.386658 542.338928,182.116287 541.892029,181.195618 
	C541.502869,181.258911 541.113647,181.322205 540.724487,181.385513 
	C541.027771,181.707260 541.331055,182.029022 541.965698,182.751389 
M570.794739,178.942215 
	C578.229858,171.377075 585.664917,163.811935 593.712463,155.948395 
	C606.414368,143.344009 619.116333,130.739639 632.184998,117.771370 
	C626.831421,113.435326 622.240051,109.716591 617.146362,105.591011 
	C608.840576,118.440140 600.914734,130.701462 592.390503,143.279938 
	C584.695068,155.015869 576.999634,166.751816 568.934753,178.989105 
	C568.989258,179.261108 569.043762,179.533127 569.098328,179.805145 
	C569.452576,179.592438 569.806763,179.379730 570.794739,178.942215 
M593.661438,136.821472 
	C600.741272,126.121658 607.821106,115.421844 615.188538,104.287384 
	C609.424438,101.210670 604.231689,98.438972 598.487061,95.372665 
	C596.428833,101.087051 594.594238,106.180550 592.123657,111.702019 
	C583.307922,133.280197 574.492188,154.858353 565.676453,176.436523 
	C566.166870,176.677994 566.657288,176.919449 567.147705,177.160904 
	C575.798584,163.849701 584.449463,150.538513 593.661438,136.821472 
M591.169128,272.702423 
	C594.030090,279.341675 596.891052,285.980927 599.972351,293.131592 
	C605.460999,290.160278 610.478516,287.444092 616.110840,284.395020 
	C608.210632,272.857086 600.654541,261.821716 592.944275,250.125748 
	C588.296936,243.213959 583.649597,236.302170 579.002258,229.390381 
	C578.578613,229.558548 578.154968,229.726700 577.731323,229.894852 
	C578.152344,234.456924 577.673828,239.342682 579.175537,243.515900 
	C582.655945,253.188339 587.093628,262.516266 591.169128,272.702423 
M558.170593,101.884880 
	C558.170593,126.444275 558.170593,151.003677 558.170593,175.563065 
	C558.626282,175.588821 559.082031,175.614594 559.537720,175.640350 
	C560.802429,168.825165 562.067139,162.009995 563.746948,154.536758 
	C567.943970,132.812149 572.140991,111.087532 576.461304,88.724915 
	C569.973145,88.235420 564.277588,87.805717 558.349243,87.358452 
	C558.349243,92.388031 558.349243,96.672783 558.170593,101.884880 
M592.853638,232.099258 
	C588.319519,227.326859 583.785461,222.554459 579.251404,217.782059 
	C578.726501,218.191879 578.201660,218.601715 577.676819,219.011536 
	C579.568054,229.463715 587.481262,236.631058 593.078552,245.798325 
	C601.287415,258.042267 609.496338,270.286224 618.067139,283.070007 
	C622.960205,279.004639 627.356018,275.352386 631.289368,272.084381 
	C618.309082,258.683777 605.718872,245.685944 592.853638,232.099258 
M539.613220,102.033508 
	C544.544617,126.606300 549.476013,151.179108 554.407471,175.751892 
	C554.835327,175.684082 555.263184,175.616257 555.691040,175.548431 
	C555.691040,150.687973 555.691040,125.827522 555.850464,100.055550 
	C555.850464,95.980942 555.850464,91.906334 555.850464,87.221268 
	C549.224304,87.832664 543.230896,88.385681 536.825134,88.976738 
	C537.819763,93.512703 538.661438,97.351089 539.613220,102.033508 
M519.916382,102.808098 
	C529.860779,126.556587 539.805176,150.305069 549.749573,174.053558 
	C550.347412,173.872131 550.945251,173.690704 551.543152,173.509277 
	C546.593262,149.283585 541.643372,125.057892 536.608337,99.976112 
	C535.915222,96.668243 535.222168,93.360367 534.402100,89.446709 
	C528.187134,91.435394 522.507324,93.252861 516.485229,95.179825 
	C517.846680,97.984970 518.836975,100.025398 519.916382,102.808098 
M593.807190,168.116608 
	C610.872986,156.700195 627.938843,145.283783 645.460083,133.562729 
	C641.259033,128.523224 637.567749,124.095207 634.431946,120.333519 
	C620.345032,133.992416 606.615723,147.304581 592.251282,160.891647 
	C585.304138,167.802841 578.356934,174.714035 571.409790,181.625229 
	C571.742493,182.001312 572.075195,182.377396 572.407898,182.753479 
	C579.322021,177.958374 586.236084,173.163269 593.807190,168.116608 
M456.920502,193.250519 
	C483.514526,193.250519 510.108582,193.250519 536.702637,193.250519 
	C536.745483,192.745193 536.788330,192.239868 536.831116,191.734543 
	C527.971313,190.000031 519.114807,188.248199 510.250916,186.534683 
	C492.166534,183.038620 474.078156,179.563202 455.307831,175.757462 
	C454.088562,175.550461 452.869293,175.343460 451.228699,175.064926 
	C450.698273,181.411484 450.212189,187.227493 449.699127,193.366379 
	C452.391815,193.225220 454.198029,193.130524 456.920502,193.250519 
M456.979187,213.412750 
	C483.314697,208.096497 509.650238,202.780243 535.985779,197.463989 
	C535.888733,196.977921 535.791687,196.491867 535.694641,196.005814 
	C509.129578,196.005814 482.564484,196.005814 455.101898,195.802902 
	C453.505127,195.802902 451.908386,195.802902 449.599152,195.802902 
	C450.184448,202.134628 450.731293,208.050446 451.321320,214.433105 
	C453.362366,213.988800 454.746857,213.687424 456.979187,213.412750 
M541.901978,169.512314 
	C543.726685,172.252914 545.551331,174.993515 547.376038,177.734100 
	C547.751038,177.522278 548.126038,177.310455 548.501038,177.098618 
	C546.735657,173.274734 544.970276,169.450836 543.093872,164.921982 
	C533.588379,142.158905 524.082825,119.395836 514.295044,95.956795 
	C509.360016,98.689743 505.016998,101.052864 500.716766,103.491470 
	C497.974121,105.046776 499.130310,106.587784 501.001343,108.691399 
	C501.658752,109.516281 502.316162,110.341156 503.168671,111.798538 
	C506.422455,116.541870 509.676239,121.285194 513.052124,126.649208 
	C513.689819,127.459824 514.327576,128.270432 515.123596,129.742493 
	C517.982300,133.870514 520.841064,137.998535 523.832092,142.773468 
	C524.387268,143.446899 524.942505,144.120346 525.757385,145.372513 
	C531.060608,153.228226 536.363770,161.083939 541.901978,169.512314 
M593.690002,200.342453 
	C616.591248,204.857040 639.492493,209.371628 662.938599,213.993637 
	C663.403137,207.459824 663.808228,201.761368 664.216797,196.014450 
	C639.951660,196.014450 616.475159,196.014450 592.085693,195.805359 
	C587.472046,195.805359 582.858398,195.805359 578.244751,195.805359 
	C578.201843,196.370560 578.158875,196.935745 578.115967,197.500946 
	C583.076294,198.322693 588.036682,199.144440 593.690002,200.342453 
M593.920593,193.242096 
	C617.184875,193.242096 640.449097,193.242096 664.360962,193.242096 
	C663.800171,186.768936 663.291077,180.891754 662.730835,174.424377 
	C659.359314,175.020584 656.611755,175.436996 653.894104,175.998138 
	C633.557190,180.197449 613.226074,184.425354 592.035095,188.687302 
	C587.023621,189.679810 582.012146,190.672318 577.000671,191.664825 
	C577.057007,192.120987 577.113403,192.577133 577.169739,193.033295 
	C582.447571,193.033295 587.725342,193.033295 593.920593,193.242096 
M614.932312,234.315445 
	C613.990723,233.790054 613.049133,233.264664 611.695496,232.220306 
	C607.872009,229.781097 604.048523,227.341873 599.917419,224.299866 
	C598.013000,223.167343 596.108582,222.034805 593.795166,220.355225 
	C588.795410,217.016525 583.795654,213.677826 578.795898,210.339127 
	C578.188354,211.013214 577.580750,211.687317 576.973206,212.361404 
	C595.520142,231.517487 614.754578,250.015228 633.964722,269.590149 
	C638.043213,264.569580 641.852295,259.880798 646.030029,254.738083 
	C635.315613,247.831757 625.280029,241.363007 614.932312,234.315445 
M542.679688,178.200348 
	C543.327820,178.749619 543.975952,179.298889 544.624084,179.848160 
	C544.821167,179.648956 545.018311,179.449753 545.215393,179.250565 
	C544.564758,178.415741 543.914062,177.580933 543.107056,176.072128 
	C527.599670,152.910004 512.092224,129.747879 496.205017,106.018433 
	C491.233154,110.152542 486.841461,113.804253 482.800781,117.164101 
	C502.935944,137.623001 522.640869,157.644745 542.679688,178.200348 
M648.469482,250.563248 
	C650.968689,245.925430 653.467957,241.287628 656.198059,236.221359 
	C630.037354,225.536362 604.364685,215.050705 578.114990,204.329330 
	C579.419312,208.186386 625.128662,239.547577 645.838928,251.741745 
	C646.536438,251.493790 647.234009,251.245834 648.469482,250.563248 
M494.760193,219.193161 
	C495.505920,218.793137 496.251617,218.393112 497.732513,217.989151 
	C510.546417,212.588547 523.360291,207.187943 536.174194,201.787338 
	C535.967957,201.209366 535.761719,200.631378 535.555481,200.053391 
	C507.772888,205.689743 479.990265,211.326096 451.716187,217.062149 
	C453.713196,223.290726 455.508545,228.890457 457.477814,235.032532 
	C470.144989,229.607254 482.136383,224.471420 494.760193,219.193161 
M598.384338,184.783966 
	C619.340820,180.521896 640.297241,176.259827 662.061340,171.833511 
	C660.108948,165.574326 658.327881,159.864609 656.478394,153.935455 
	C628.822754,165.548706 601.986389,176.817947 575.150024,188.087173 
	C575.279358,188.550797 575.408752,189.014404 575.538147,189.478012 
	C582.873596,187.953400 590.209045,186.428772 598.384338,184.783966 
M615.450195,216.950882 
	C629.087524,222.495361 642.724792,228.039825 657.109985,233.888351 
	C658.916504,227.750366 660.558777,222.170410 662.277100,216.331985 
	C633.784912,210.731262 606.106873,205.290573 578.428772,199.849884 
	C578.242798,200.429291 578.056824,201.008698 577.870850,201.588089 
	C590.161682,206.609573 602.452576,211.631042 615.450195,216.950882 
M513.448975,167.078018 
	C498.098572,156.898254 482.748169,146.718491 466.857544,136.180466 
	C463.850769,141.814835 461.080719,147.005585 458.023621,152.734192 
	C485.171417,163.792923 511.690155,174.595413 538.208923,185.397903 
	C538.443054,184.907730 538.677246,184.417542 538.911438,183.927368 
	C530.629944,178.434723 522.348450,172.942078 513.448975,167.078018 
M487.526093,146.956421 
	C504.997772,158.493469 522.469421,170.030533 539.941101,181.567581 
	C539.986633,181.419937 540.032104,181.272293 540.077576,181.124664 
	C519.944824,160.984787 499.812103,140.844925 479.395294,120.420898 
	C476.014893,124.612122 472.232025,129.302338 468.284119,134.197205 
	C475.027679,138.650909 480.988251,142.587479 487.526093,146.956421 
M612.836182,158.387375 
	C600.314697,166.782990 587.793213,175.178619 575.271667,183.574234 
	C575.489319,184.075104 575.706909,184.575989 575.924561,185.076859 
	C602.336243,173.996490 628.747986,162.916122 655.590637,151.654953 
	C652.470215,145.985962 649.699524,140.952362 646.780823,135.649765 
	C635.263550,143.369278 624.352966,150.682205 612.836182,158.387375 
M569.834717,135.330719 
	C567.313110,148.160614 564.791504,160.990524 562.269897,173.820435 
	C562.798157,173.996582 563.326416,174.172714 563.854675,174.348862 
	C574.628052,147.988724 585.401367,121.628601 596.448120,94.599648 
	C590.392517,92.793686 584.927795,91.163940 578.949280,89.380974 
	C575.843384,104.927719 572.890930,119.706245 569.834717,135.330719 
M535.172424,205.238876 
	C514.176086,213.964218 493.175659,222.679626 472.186707,231.422729 
	C467.673004,233.302963 463.200867,235.283081 458.333832,237.378998 
	C461.451752,243.055801 464.204468,248.067657 467.102875,253.344818 
	C489.991791,237.976807 512.212097,223.071671 534.388672,208.101624 
	C535.065491,207.644760 535.285950,206.511810 535.172424,205.238876 
M511.315643,241.815796 
	C501.479675,251.431900 491.643738,261.048004 481.407379,271.055542 
	C486.944977,275.594879 491.553528,279.372650 496.246887,283.219971 
	C496.978943,282.428802 497.494965,282.002899 497.848907,281.469513 
	C510.085388,263.026367 522.372070,244.615707 534.433899,226.058884 
	C535.712769,224.091324 535.660645,221.258560 536.225952,218.827179 
	C535.732483,218.546432 535.239014,218.265701 534.745544,217.984955 
	C527.101013,225.760590 519.456543,233.536224 511.315643,241.815796 
M535.575317,213.896790 
	C535.575317,212.977310 535.575317,212.057816 535.575317,210.320755 
	C512.906555,225.550522 490.825378,240.385529 468.370056,255.471893 
	C472.518188,260.446228 476.206757,264.869507 480.150909,269.599243 
	C498.801514,250.933701 516.997559,232.723099 535.575317,213.896790 
M532.312378,251.834579 
	C535.908020,245.090012 536.687683,237.986145 535.275146,229.497253 
	C522.803345,248.319763 510.901581,266.282013 498.620667,284.816437 
	C504.201263,287.807220 509.510101,290.652344 515.196655,293.699921 
	C521.003113,279.513611 526.519958,266.034698 532.312378,251.834579 
M457.006744,173.762039 
	C469.055511,176.635086 481.452240,177.536392 493.486206,180.732361 
	C505.019562,183.795364 516.883423,185.624557 528.626038,187.870209 
	C529.656982,188.067368 530.866394,187.331100 533.241455,186.692902 
	C507.088104,176.035095 482.234497,165.906937 456.772827,155.530991 
	C455.089447,161.318130 453.503693,166.769699 451.854980,172.437592 
	C453.706512,172.830521 454.989166,173.102737 457.006744,173.762039 
M578.088989,264.507507 
	C578.598206,276.010101 576.828247,287.642456 579.698303,299.805969 
	C585.954834,297.793732 591.649170,295.962280 597.578918,294.055145 
	C591.150024,278.750092 585.088989,264.320587 579.027893,249.891083 
	C578.714905,249.984665 578.401978,250.078262 578.088989,250.171844 
	C578.088989,254.618637 578.088989,259.065430 578.088989,264.507507 
M535.816650,296.072784 
	C535.816650,281.464966 535.816650,266.857117 535.816650,252.249283 
	C535.471985,252.208862 535.127380,252.168442 534.782715,252.128021 
	C529.097473,266.092499 523.412231,280.056976 517.479309,294.629822 
	C522.893738,296.217255 527.762512,297.775177 532.719727,298.964447 
	C533.508972,299.153778 534.695679,297.686798 535.816650,296.072784 
z"/>
<path fill="#434343" opacity="1.000000" stroke="none" 
	d="
M1.000000,356.000000 
	C1.000000,354.285614 1.000000,352.571259 1.464963,350.421021 
	C294.286621,349.990143 586.643311,349.995056 879.000000,350.000000 
	C879.000000,351.714386 879.000000,353.428741 878.541138,355.540314 
	C586.720276,355.934662 295.358337,355.931793 3.996421,355.931915 
	C2.997614,355.931915 1.998807,355.976318 1.000000,356.000000 
z"/>
<path fill="#EDEDED" opacity="1.000000" stroke="none" 
	d="
M15.026257,335.286102 
	C10.662385,335.803986 6.295248,335.870117 1.464055,335.968109 
	C1.000000,257.979095 1.000000,179.958206 1.000000,101.468658 
	C4.498153,101.003471 7.999658,101.101982 11.493341,100.978752 
	C14.043772,100.888786 15.225137,101.839226 15.016427,104.457047 
	C14.910867,105.781105 15.003166,107.120796 15.003285,108.453423 
	C15.010037,183.913727 15.016500,259.374054 15.026257,335.286102 
z"/>
<path fill="#F8F8F8" opacity="1.000000" stroke="none" 
	d="
M1.000000,356.500000 
	C1.998807,355.976318 2.997614,355.931915 3.996421,355.931915 
	C295.358337,355.931793 586.720276,355.934662 878.541138,355.968750 
	C878.951904,357.654388 879.621460,359.871704 876.493408,359.024261 
	C875.872314,358.855988 875.166687,359.000000 874.500000,359.000000 
	C584.833313,359.000000 295.166656,359.004456 5.500071,358.858673 
	C4.211019,358.858002 0.872537,361.328461 1.000000,356.500000 
z"/>
<path fill="#FFFFFD" opacity="1.000000" stroke="none" 
	d="
M879.000000,349.666687 
	C586.643311,349.995056 294.286621,349.990143 1.464963,349.992615 
	C1.000000,349.555542 1.000000,349.111115 1.000000,348.333313 
	C2.492596,347.926025 3.985190,347.787292 5.477789,347.787231 
	C295.681000,347.777863 585.884216,347.778290 876.087463,347.779663 
	C876.753723,347.779694 877.419922,347.798645 878.543091,347.904358 
	C879.000000,348.444458 879.000000,348.888885 879.000000,349.666687 
z"/>
<path fill="#ECECEC" opacity="1.000000" stroke="none" 
	d="
M879.000000,335.562500 
	C874.880615,336.000000 870.761230,336.000000 865.913879,336.000000 
	C865.913879,319.145233 865.913879,302.657745 865.846069,285.409180 
	C865.522522,284.063507 865.266846,283.478943 865.276733,282.579376 
	C865.658081,265.008240 865.773804,247.752151 865.910156,230.053925 
	C865.938843,229.022018 865.946960,228.432220 865.930786,227.384216 
	C865.920837,219.336823 865.935059,211.747650 865.949280,204.158493 
	C865.966980,171.892029 865.984314,139.625565 866.002808,107.359100 
	C866.006470,101.010262 866.008423,101.010239 872.580566,101.007675 
	C874.410095,101.006958 876.239685,101.006447 878.534607,101.002930 
	C879.000000,104.030594 879.000000,107.061188 878.554077,110.545883 
	C876.194275,111.103424 874.280457,111.206856 872.369324,111.310150 
	C872.194946,112.534904 872.036316,113.179123 872.020691,113.826790 
	C871.111328,151.449524 873.574158,189.097992 871.173523,226.710815 
	C871.143677,227.178024 871.499146,227.657715 871.543335,228.143555 
	C873.248718,246.893524 875.263367,265.650452 870.514954,284.284607 
	C870.401306,284.730469 870.303650,285.357880 870.521912,285.684631 
	C874.795227,292.082703 872.625977,299.267853 872.926147,306.105835 
	C873.251953,313.529205 873.000000,320.977905 873.000000,329.000000 
	C875.434509,329.000000 877.217224,329.000000 879.000000,329.000000 
	C879.000000,331.041656 879.000000,333.083344 879.000000,335.562500 
z"/>
<path fill="#ECECEC" opacity="1.000000" stroke="none" 
	d="
M879.000000,328.531342 
	C877.217224,329.000000 875.434509,329.000000 873.000000,329.000000 
	C873.000000,320.977905 873.251953,313.529205 872.926147,306.105835 
	C872.625977,299.267853 874.795227,292.082703 870.521912,285.684631 
	C870.303650,285.357880 870.401306,284.730469 870.514954,284.284607 
	C875.263367,265.650452 873.248718,246.893524 871.543335,228.143555 
	C871.499146,227.657715 871.143677,227.178024 871.173523,226.710815 
	C873.574158,189.097992 871.111328,151.449524 872.020691,113.826790 
	C872.036316,113.179123 872.194946,112.534904 872.369324,111.310150 
	C874.280457,111.206856 876.194275,111.103424 878.554077,111.000000 
	C879.000000,183.354233 879.000000,255.708450 879.000000,328.531342 
z"/>
<path fill="#EDEDED" opacity="1.000000" stroke="none" 
	d="
M289.006348,218.471344 
	C285.819153,218.669037 284.521484,220.040833 284.919098,223.284256 
	C285.157715,225.230881 284.962952,227.230637 284.962952,229.543030 
	C278.420837,229.543030 272.189606,229.543030 265.455383,229.543030 
	C265.307068,226.327530 265.157227,223.078674 264.991943,219.495880 
	C262.992432,219.495880 261.116577,219.495880 258.665833,219.495880 
	C258.665833,222.929123 258.665833,226.162628 258.665833,229.607483 
	C251.863190,229.607483 245.633530,229.607483 238.882050,229.607483 
	C238.882050,226.107956 238.882050,222.863983 238.882050,219.393433 
	C236.593643,219.393433 234.825439,219.393433 232.492889,219.393433 
	C232.492889,222.620956 232.492889,225.851425 232.492889,229.478699 
	C225.749374,229.478699 219.546738,229.478699 212.765442,229.478699 
	C212.765442,226.298965 212.765442,223.070648 212.765442,219.496811 
	C210.328171,219.496811 208.452515,219.496811 206.125702,219.496811 
	C206.125702,222.757385 206.125702,226.011826 206.125702,229.570358 
	C199.439957,229.570358 193.186478,229.570358 186.089554,229.570358 
	C186.089554,227.300858 186.333740,224.860916 185.988388,222.507462 
	C185.810989,221.298691 184.581650,220.244293 183.408875,219.020630 
	C182.990891,181.642746 183.073074,144.363968 182.889740,107.086502 
	C182.866776,102.420341 183.912994,100.855652 188.860687,100.891121 
	C220.312698,101.116615 251.767639,101.092682 283.220184,100.908043 
	C287.719482,100.881638 289.132141,101.975662 289.107544,106.671585 
	C288.913177,143.782516 289.002411,180.894943 289.006348,218.471344 
z"/>
<path fill="#ECECEC" opacity="1.000000" stroke="none" 
	d="
M699.014343,284.888550 
	C695.554016,284.888550 692.093628,284.888550 688.057617,284.888550 
	C688.057617,302.068329 688.057617,318.742645 688.057617,335.890625 
	C656.285645,335.890625 625.090820,335.890625 593.435425,335.349731 
	C592.992920,323.484039 593.011108,312.159241 593.029297,300.834473 
	C594.465027,303.006683 595.900757,305.178864 597.697144,307.896729 
	C601.247131,306.412811 605.140930,304.785217 609.396912,303.006226 
	C608.224854,300.193420 607.236511,297.821381 606.159302,295.236115 
	C609.556519,293.352417 612.880371,291.509430 616.512878,289.495270 
	C618.084045,291.716522 619.574768,293.824097 621.348145,296.331238 
	C624.974731,293.775513 628.444092,291.330597 632.322998,288.597137 
	C630.544922,286.237793 628.999512,284.187134 627.273865,281.897400 
	C630.203125,279.194763 632.974915,276.637390 636.045532,273.804260 
	C638.011353,275.571472 639.924683,277.291443 642.340759,279.463440 
	C645.299438,276.205170 648.145447,273.070923 651.315063,269.580383 
	C649.148743,267.701965 647.193848,266.006805 644.882446,264.002563 
	C647.164246,260.786835 649.411987,257.619019 651.792236,254.264450 
	C654.200439,255.644211 656.318237,256.857574 659.107239,258.455505 
	C661.235046,254.603638 663.277588,250.906250 665.539307,246.811996 
	C663.047607,245.393188 660.822021,244.125870 658.263672,242.669083 
	C659.692993,239.067230 661.071045,235.594635 662.616943,231.699142 
	C665.279785,232.470535 667.761780,233.189545 670.706299,234.042526 
	C671.933044,229.792252 673.110840,225.711823 674.390198,221.279266 
	C671.468994,220.476227 668.990295,219.794830 666.270935,219.047302 
	C666.977051,215.014511 667.625854,211.308762 668.344238,207.205734 
	C670.934875,207.435455 673.490845,207.662109 676.695374,207.946259 
	C676.913086,203.451660 677.117981,199.220444 677.349121,194.448105 
	C674.395142,194.307144 671.835205,194.184998 669.004639,194.049927 
	C668.742065,190.053970 668.496765,186.320694 668.237244,182.371155 
	C670.968445,181.868210 673.370178,181.425949 675.865845,180.966370 
	C675.865845,179.357529 676.001892,177.883606 675.843506,176.442047 
	C674.893738,167.798019 674.871094,167.800507 666.191589,169.130936 
	C665.073364,165.502274 663.930054,161.792419 662.701355,157.805267 
	C665.336609,156.737274 667.598572,155.820602 670.557983,154.621246 
	C668.904602,150.631927 667.296021,146.750565 665.467163,142.337769 
	C662.763489,143.463211 660.391663,144.450500 657.727600,145.559448 
	C655.778809,142.143051 653.907593,138.862656 651.852295,135.259506 
	C653.986023,133.774155 656.112732,132.293671 658.791199,130.429077 
	C656.251770,126.814682 653.823242,123.358101 651.111938,119.499161 
	C648.735229,121.228127 646.658020,122.739258 644.249756,124.491196 
	C641.693542,121.603142 639.196777,118.782295 636.488525,115.722435 
	C638.291382,113.589966 639.951294,111.626526 641.949585,109.262871 
	C638.935608,106.633118 636.076599,104.138565 633.074341,101.337723 
	C653.253967,101.023277 673.578247,101.139870 693.898621,100.907486 
	C698.249695,100.857719 699.132263,102.387199 699.082214,106.363152 
	C698.920959,119.184090 699.130066,132.009689 699.226990,145.661392 
	C697.837708,148.989838 696.417786,151.490372 694.776062,154.381454 
	C696.544128,154.644821 697.772827,154.827820 699.001831,155.314667 
	C699.007629,156.023590 699.013123,156.428680 698.577759,156.906250 
	C694.978943,156.492188 694.757324,158.333481 694.778442,160.827362 
	C694.871704,171.822968 694.818359,182.819809 694.818115,193.816208 
	C694.818054,197.085236 694.818115,200.354263 694.818115,203.684387 
	C692.176025,203.879883 690.249878,204.022400 688.294312,204.167114 
	C688.294312,212.269836 688.294312,220.001617 688.294312,228.273193 
	C692.090393,228.273193 695.558960,228.273193 699.031982,228.571869 
	C699.020752,229.268448 699.005005,229.666351 698.540771,230.170822 
	C694.831299,230.277374 691.570251,230.277374 688.312988,230.277374 
	C688.312988,248.094711 688.312988,265.227264 688.312988,282.971558 
	C692.105408,282.971558 695.550659,282.971558 698.997375,283.291077 
	C699.004089,284.036591 699.009216,284.462555 699.014343,284.888550 
z"/>
<path fill="#EBEBEB" opacity="1.000000" stroke="none" 
	d="
M155.077911,185.396271 
	C154.357025,185.694977 154.069763,185.582321 153.389587,185.325073 
	C152.665771,185.453232 152.336914,185.714142 152.008057,185.975067 
	C137.070862,185.975067 122.133675,185.975067 106.848343,185.975067 
	C106.848343,236.224228 106.848343,285.653412 106.848343,335.506958 
	C98.482018,335.506958 90.459442,335.506958 82.189644,335.506958 
	C82.953705,325.013397 83.922195,314.618683 84.432938,304.201538 
	C86.819809,255.518387 85.730225,207.018387 76.049728,159.032944 
	C75.108040,154.365082 74.911636,148.204819 71.901894,145.688416 
	C69.110085,143.354202 63.014206,144.938385 58.372108,144.860962 
	C54.541504,144.797073 50.709339,144.826370 46.415573,144.715134 
	C45.943832,144.091156 45.934391,143.566422 46.415466,142.714355 
	C54.970638,142.387024 63.035297,142.387024 71.639595,142.387024 
	C68.926460,132.710907 65.889046,124.149902 60.084309,116.883331 
	C55.837990,111.567650 52.616837,110.834618 46.057823,113.137535 
	C45.828114,101.009560 45.828114,101.009552 57.791763,101.009560 
	C87.414131,101.009583 117.036835,101.077797 146.658447,100.928909 
	C150.651276,100.908836 152.145294,101.800392 152.094101,106.119659 
	C151.867294,125.255028 152.003815,144.394608 151.975601,163.532608 
	C151.973663,164.838470 151.698624,166.143921 150.936188,167.523636 
	C148.997162,165.798096 147.734528,162.495651 146.338120,162.438049 
	C135.737061,162.000900 125.109825,162.198868 114.420227,162.198868 
	C111.814270,169.469116 109.314880,176.442062 106.638031,183.910095 
	C123.483124,183.910095 139.721375,183.910095 155.959625,183.910095 
	C155.809570,184.272308 155.659500,184.634521 155.077911,185.396271 
z"/>
<path fill="#ECECEC" opacity="1.000000" stroke="none" 
	d="
M835.004517,155.031494 
	C835.006714,155.430145 835.008911,155.828796 834.551514,156.600983 
	C828.980652,156.974533 823.869385,156.974533 818.135010,156.974533 
	C818.135010,172.901550 818.135010,188.273560 818.135010,203.654404 
	C815.760498,203.873520 814.016541,204.034454 812.264893,204.196091 
	C812.264893,212.344162 812.264893,220.109055 812.264893,227.851654 
	C814.022705,228.010223 815.510437,228.144440 816.999146,228.575531 
	C817.000122,229.268280 817.000000,229.664154 816.541260,230.166595 
	C805.132874,230.287781 794.183044,230.342148 783.233398,230.307999 
	C765.158203,230.251648 747.083191,230.138138 728.998047,229.753662 
	C728.982666,229.065277 728.977356,228.671951 729.430664,228.182922 
	C733.821228,228.087204 737.753052,228.087204 741.723999,228.087204 
	C741.723999,219.684433 741.723999,211.927643 741.723999,204.128632 
	C739.651855,203.972504 737.849609,203.836716 735.452026,203.656067 
	C735.452026,188.178665 735.452026,172.788864 735.452026,157.212845 
	C732.905518,157.064270 730.943604,156.949799 728.987549,156.532318 
	C728.994873,155.825226 728.996277,155.421158 729.394409,154.919250 
	C731.383057,154.821442 732.975037,154.821442 735.187317,154.821442 
	C732.533020,149.876862 730.171936,145.478485 727.810791,141.080109 
	C728.208008,139.386566 728.931274,137.696442 728.948975,135.998932 
	C729.056763,125.676155 729.084778,115.350662 728.953918,105.028412 
	C728.916077,102.042725 729.836792,100.946785 732.935852,100.955009 
	C765.572571,101.041580 798.209595,101.049240 830.846191,100.947952 
	C834.193237,100.937569 835.143555,102.114784 835.066589,105.305824 
	C834.918091,111.459366 835.124695,117.621490 835.190430,124.605576 
	C829.760803,134.970825 824.324951,144.510559 818.329956,155.031494 
	C824.584778,155.031494 829.794617,155.031494 835.004517,155.031494 
M768.797974,188.811462 
	C768.223633,189.707382 767.856140,191.070984 767.044312,191.430130 
	C751.126343,198.471313 748.327454,212.025757 750.665710,227.639511 
	C768.349426,227.639511 786.037170,227.639511 803.922607,227.639511 
	C803.922607,225.232162 803.835388,223.237930 803.936646,221.253281 
	C804.619690,207.864136 799.993286,197.540039 787.306458,191.575668 
	C786.266113,191.086594 785.506104,188.964081 785.461304,187.573303 
	C785.262756,181.415039 785.742798,175.214523 785.208496,169.096466 
	C784.958801,166.237503 783.650269,162.787354 781.617004,160.909790 
	C777.351440,156.971008 776.975098,156.202957 779.960938,153.652374 
	C778.898743,151.807816 777.772827,149.852676 776.646973,147.897522 
	C777.270691,148.588623 777.894409,149.279709 778.518127,149.970795 
	C776.844177,151.223236 775.170227,152.475693 773.706299,153.570999 
	C776.967346,156.030838 776.705261,156.784531 771.965698,161.055786 
	C770.237366,162.613449 769.062500,165.561142 768.918030,167.952194 
	C768.516968,174.592010 768.789856,181.272522 768.797974,188.811462 
z"/>
<path fill="#EAEAEA" opacity="1.000000" stroke="none" 
	d="
M425.031647,335.280640 
	C422.718811,335.731995 420.403015,335.731995 417.556702,335.731995 
	C417.556702,279.949097 417.556702,224.223175 417.556702,168.107346 
	C400.957214,168.107346 384.881226,168.107346 368.309448,168.107346 
	C368.309448,188.296738 368.309448,208.693985 368.309448,229.488281 
	C360.273071,229.488281 352.713562,229.488281 344.696350,229.488281 
	C344.546326,226.352509 344.389801,223.080841 344.218048,219.491272 
	C342.296021,219.491272 340.541138,219.491272 338.210114,219.491272 
	C338.210114,222.594604 338.210114,225.827286 338.210114,229.473633 
	C331.296814,229.473633 324.930511,229.473633 317.912750,229.473633 
	C317.912750,226.270004 317.912750,223.153534 317.824097,219.593628 
	C318.158203,217.132645 318.945282,215.115875 318.949554,213.097427 
	C319.024841,177.630493 319.093323,142.162857 318.897461,106.696838 
	C318.871704,102.031921 320.225769,100.817955 324.768463,100.908897 
	C339.548859,101.204773 354.338104,101.056763 369.512817,101.419678 
	C366.859497,102.957726 366.151764,105.058678 366.198334,108.365700 
	C366.437500,125.351418 366.310120,142.342300 366.310730,159.331375 
	C366.310791,161.115204 366.310730,162.899033 366.310730,164.881958 
	C384.136810,164.881958 401.369720,164.881958 418.843964,164.881958 
	C418.843964,144.189560 418.843964,123.763054 418.843964,104.101501 
	C417.379089,102.815208 416.329376,101.893448 415.279633,100.971687 
	C418.250824,100.971687 421.222046,100.971687 425.028656,100.971687 
	C425.028656,179.244293 425.028656,257.036774 425.031647,335.280640 
z"/>
<path fill="#414141" opacity="1.000000" stroke="none" 
	d="
M415.190399,100.530067 
	C416.329376,101.893448 417.379089,102.815208 418.843964,104.101501 
	C418.843964,123.763054 418.843964,144.189560 418.843964,164.881958 
	C401.369720,164.881958 384.136810,164.881958 366.310730,164.881958 
	C366.310730,162.899033 366.310791,161.115204 366.310730,159.331375 
	C366.310120,142.342300 366.437500,125.351418 366.198334,108.365700 
	C366.151764,105.058678 366.859497,102.957726 369.869019,101.369308 
	C371.334229,94.759087 372.898682,88.554337 374.307068,82.314354 
	C375.281128,77.998550 376.939117,73.585518 376.707611,69.301537 
	C376.224243,60.358139 378.989075,52.289658 381.654114,44.085865 
	C385.192810,33.192692 388.664673,22.277798 392.582001,10.073903 
	C396.269592,21.424810 399.418518,31.651363 402.922607,41.754726 
	C406.489563,52.039413 408.721161,62.369411 408.372253,73.429146 
	C408.230713,77.914825 411.392700,82.434616 412.617004,87.054039 
	C413.747314,91.318741 414.296173,95.737526 415.190399,100.530067 
M381.034729,117.667419 
	C377.332947,122.996643 377.045105,128.543564 380.475128,134.014709 
	C383.551514,138.921783 388.284210,141.397949 394.018219,140.730331 
	C400.086853,140.023727 404.364777,136.578110 406.402618,130.603729 
	C408.456146,124.583496 405.998230,117.756416 400.369446,114.129280 
	C394.172546,110.136108 387.680878,111.148598 381.034729,117.667419 
z"/>
<path fill="#ECECEC" opacity="1.000000" stroke="none" 
	d="
M456.075531,261.230713 
	C458.467346,263.706238 460.816132,266.665741 463.314148,269.813263 
	C465.564240,268.167938 467.545776,266.718994 469.920654,264.982422 
	C472.532013,267.853241 475.157349,270.739441 477.951965,273.811737 
	C476.035126,275.909454 474.377808,277.723145 472.295715,280.001678 
	C475.519257,282.928284 478.660278,285.779999 482.147125,288.945709 
	C484.170837,286.679077 485.877747,284.767242 487.772400,282.645172 
	C491.034088,284.910278 494.141785,287.068451 497.454285,289.368835 
	C496.114288,291.832275 494.876801,294.107269 493.404999,296.813019 
	C497.326294,298.985931 501.046417,301.047394 505.020203,303.249390 
	C506.472717,300.594116 507.715668,298.321991 509.096558,295.797638 
	C512.776184,297.324615 516.252747,298.767303 519.986084,300.316559 
	C519.271667,302.953247 518.599060,305.435364 517.782898,308.447479 
	C522.096375,309.671417 526.151855,310.822144 530.428772,312.035736 
	C531.002625,310.096008 531.332336,308.468140 531.977295,306.976532 
	C532.428650,305.932617 533.310608,305.074890 534.000244,304.134003 
	C534.613037,305.300568 535.738403,306.458893 535.757324,307.635010 
	C535.904480,316.787720 535.838623,325.943878 535.838623,335.901489 
	C509.375519,335.901489 483.135498,335.901489 456.431763,335.815155 
	C455.989532,311.057465 456.011017,286.386108 456.075531,261.230713 
z"/>
<path fill="#3E3E3E" opacity="1.000000" stroke="none" 
	d="
M816.998169,228.278641 
	C815.510437,228.144440 814.022705,228.010223 812.264893,227.851654 
	C812.264893,220.109055 812.264893,212.344162 812.264893,204.196091 
	C814.016541,204.034454 815.760498,203.873520 818.135010,203.654404 
	C818.135010,188.273560 818.135010,172.901550 818.135010,156.974533 
	C823.869385,156.974533 828.980652,156.974533 834.555908,156.899948 
	C842.796387,156.825363 850.572876,156.825363 858.863403,156.825363 
	C858.863403,172.527512 858.863403,187.849335 858.863403,203.605667 
	C861.254089,203.758560 863.166931,203.880875 865.514526,204.080841 
	C865.935059,211.747650 865.920837,219.336823 865.469849,227.456848 
	C855.032959,228.086960 845.032654,228.186203 834.571045,228.189575 
	C828.405823,228.155350 822.702026,228.216995 816.998169,228.278641 
M837.872009,206.450790 
	C833.606018,207.586151 830.898743,210.392273 832.125793,214.699127 
	C832.800964,217.069031 835.345703,219.729202 837.672302,220.611984 
	C841.124817,221.921997 843.999512,219.699402 845.528076,216.312134 
	C847.539307,211.855362 844.673096,207.771255 837.872009,206.450790 
z"/>
<path fill="#3F3F3F" opacity="1.000000" stroke="none" 
	d="
M155.968597,183.535095 
	C139.721375,183.910095 123.483124,183.910095 106.638031,183.910095 
	C109.314880,176.442062 111.814270,169.469116 114.420227,162.198868 
	C125.109825,162.198868 135.737061,162.000900 146.338120,162.438049 
	C147.734528,162.495651 148.997162,165.798096 150.624023,167.805862 
	C152.610062,173.062729 154.293808,178.111420 155.968597,183.535095 
z"/>
<path fill="#3E3E3E" opacity="1.000000" stroke="none" 
	d="
M45.893593,113.423470 
	C52.616837,110.834618 55.837990,111.567650 60.084309,116.883331 
	C65.889046,124.149902 68.926460,132.710907 71.639595,142.387024 
	C63.035297,142.387024 54.970638,142.387024 46.440430,142.452789 
	C41.085629,142.518570 36.196369,142.518570 30.618631,142.518570 
	C34.479099,131.548584 37.180260,121.125816 45.893593,113.423470 
z"/>
<path fill="#434343" opacity="1.000000" stroke="none" 
	d="
M727.534851,140.883026 
	C730.171936,145.478485 732.533020,149.876862 735.187317,154.821442 
	C732.975037,154.821442 731.383057,154.821442 728.934204,154.823517 
	C718.385437,154.887344 708.693481,154.949097 699.001526,155.010834 
	C697.772827,154.827820 696.544128,154.644821 694.776062,154.381454 
	C696.417786,151.490372 697.837708,148.989838 699.320190,146.177124 
	C704.443726,137.326111 709.504700,128.787292 715.034668,119.457352 
	C719.272522,126.816887 723.265686,133.751404 727.534851,140.883026 
z"/>
<path fill="#434343" opacity="1.000000" stroke="none" 
	d="
M835.464600,154.936493 
	C829.794617,155.031494 824.584778,155.031494 818.329956,155.031494 
	C824.324951,144.510559 829.760803,134.970825 835.275146,125.118713 
	C836.368713,123.306290 837.383789,121.806252 838.908691,119.552803 
	C845.659302,131.209641 852.215271,142.530289 859.344849,154.841476 
	C850.963379,154.841476 843.444031,154.841476 835.464600,154.936493 
z"/>
<path fill="#EBEBEB" opacity="1.000000" stroke="none" 
	d="
M481.594421,101.005768 
	C483.718353,103.053001 485.369019,105.097267 487.085907,107.223534 
	C483.979156,110.010201 481.163391,112.535851 478.069214,115.311249 
	C476.035553,113.471649 474.119019,111.737999 471.830444,109.667816 
	C468.844391,112.989113 466.004395,116.147926 462.902313,119.598274 
	C465.113159,121.502518 467.085510,123.201378 469.278595,125.090324 
	C466.992401,128.333160 464.821472,131.412521 462.384827,134.868790 
	C460.400970,133.663315 458.467499,132.488464 456.259399,131.079147 
	C455.989838,122.678543 456.188965,114.505936 455.917267,106.348999 
	C455.783417,102.329445 456.791504,100.688820 461.127289,100.917122 
	C467.774994,101.267181 474.454956,101.005096 481.594421,101.005768 
z"/>
<path fill="#E6E6E6" opacity="1.000000" stroke="none" 
	d="
M455.075623,245.080261 
	C455.691040,244.799362 456.909882,244.658493 457.172760,245.094299 
	C458.947601,248.036621 460.519989,251.101044 462.321838,254.428772 
	C460.331696,255.692047 458.539673,256.829559 456.406128,258.051392 
	C455.788635,253.919525 455.512726,249.703308 455.075623,245.080261 
z"/>
<path fill="#E6E6E6" opacity="1.000000" stroke="none" 
	d="
M630.600586,101.021645 
	C629.621826,102.974007 628.174133,104.914749 626.648560,106.959915 
	C623.917114,105.072525 621.502930,103.404320 618.894897,101.444595 
	C622.511292,101.105400 626.321472,101.057716 630.600586,101.021645 
z"/>
<path fill="#EAEAEA" opacity="1.000000" stroke="none" 
	d="
M597.964417,184.844055 
	C590.209045,186.428772 582.873596,187.953400 575.538147,189.478012 
	C575.408752,189.014404 575.279358,188.550797 575.150024,188.087173 
	C601.986389,176.817947 628.822754,165.548706 656.478394,153.935455 
	C658.327881,159.864609 660.108948,165.574326 662.061340,171.833511 
	C640.297241,176.259827 619.340820,180.521896 597.964417,184.844055 
z"/>
<path fill="#EBEBEB" opacity="1.000000" stroke="none" 
	d="
M615.096802,216.801697 
	C602.452576,211.631042 590.161682,206.609573 577.870850,201.588089 
	C578.056824,201.008698 578.242798,200.429291 578.428772,199.849884 
	C606.106873,205.290573 633.784912,210.731262 662.277100,216.331985 
	C660.558777,222.170410 658.916504,227.750366 657.109985,233.888351 
	C642.724792,228.039825 629.087524,222.495361 615.096802,216.801697 
z"/>
<path fill="#E8E8E8" opacity="1.000000" stroke="none" 
	d="
M513.757935,167.263733 
	C522.348450,172.942078 530.629944,178.434723 538.911438,183.927368 
	C538.677246,184.417542 538.443054,184.907730 538.208923,185.397903 
	C511.690155,174.595413 485.171417,163.792923 458.023621,152.734192 
	C461.080719,147.005585 463.850769,141.814835 466.857544,136.180466 
	C482.748169,146.718491 498.098572,156.898254 513.757935,167.263733 
z"/>
<path fill="#EDEDED" opacity="1.000000" stroke="none" 
	d="
M494.127777,219.335571 
	C482.136383,224.471420 470.144989,229.607254 457.477814,235.032532 
	C455.508545,228.890457 453.713196,223.290726 451.716187,217.062149 
	C479.990265,211.326096 507.772888,205.689743 535.555481,200.053391 
	C535.761719,200.631378 535.967957,201.209366 536.174194,201.787338 
	C523.360291,207.187943 510.546417,212.588547 497.147980,217.730042 
	C495.751556,218.092484 494.939667,218.714035 494.127777,219.335571 
z"/>
<path fill="#EDEDED" opacity="1.000000" stroke="none" 
	d="
M645.401123,251.189697 
	C625.128662,239.547577 579.419312,208.186386 578.114990,204.329330 
	C604.364685,215.050705 630.037354,225.536362 656.198059,236.221359 
	C653.467957,241.287628 650.968689,245.925430 647.778076,250.793488 
	C646.524841,251.079041 645.962952,251.134369 645.401123,251.189697 
z"/>
<path fill="#EAEAEA" opacity="1.000000" stroke="none" 
	d="
M487.237427,146.740234 
	C480.988251,142.587479 475.027679,138.650909 468.284119,134.197205 
	C472.232025,129.302338 476.014893,124.612122 479.395294,120.420898 
	C499.812103,140.844925 519.944824,160.984787 540.077576,181.124664 
	C540.032104,181.272293 539.986633,181.419937 539.941101,181.567581 
	C522.469421,170.030533 504.997772,158.493469 487.237427,146.740234 
z"/>
<path fill="#ECECEC" opacity="1.000000" stroke="none" 
	d="
M613.139282,158.191254 
	C624.352966,150.682205 635.263550,143.369278 646.780823,135.649765 
	C649.699524,140.952362 652.470215,145.985962 655.590637,151.654953 
	C628.747986,162.916122 602.336243,173.996490 575.924561,185.076859 
	C575.706909,184.575989 575.489319,184.075104 575.271667,183.574234 
	C587.793213,175.178619 600.314697,166.782990 613.139282,158.191254 
z"/>
<path fill="#F8F8F8" opacity="1.000000" stroke="none" 
	d="
M569.886597,134.907745 
	C572.890930,119.706245 575.843384,104.927719 578.949280,89.380974 
	C584.927795,91.163940 590.392517,92.793686 596.448120,94.599648 
	C585.401367,121.628601 574.628052,147.988724 563.854675,174.348862 
	C563.326416,174.172714 562.798157,173.996582 562.269897,173.820435 
	C564.791504,160.990524 567.313110,148.160614 569.886597,134.907745 
z"/>
<path fill="#E8E8E8" opacity="1.000000" stroke="none" 
	d="
M535.445801,205.466461 
	C535.285950,206.511810 535.065491,207.644760 534.388672,208.101624 
	C512.212097,223.071671 489.991791,237.976807 467.102875,253.344818 
	C464.204468,248.067657 461.451752,243.055801 458.333832,237.378998 
	C463.200867,235.283081 467.673004,233.302963 472.186707,231.422729 
	C493.175659,222.679626 514.176086,213.964218 535.445801,205.466461 
z"/>
<path fill="#E8E8E8" opacity="1.000000" stroke="none" 
	d="
M542.345825,177.666458 
	C522.640869,157.644745 502.935944,137.623001 482.800781,117.164101 
	C486.841461,113.804253 491.233154,110.152542 496.205017,106.018433 
	C512.092224,129.747879 527.599670,152.910004 542.950195,176.633606 
	C542.644165,177.352203 542.494995,177.509308 542.345825,177.666458 
z"/>
<path fill="#EAEAEA" opacity="1.000000" stroke="none" 
	d="
M511.563843,241.563812 
	C519.456543,233.536224 527.101013,225.760590 534.745544,217.984955 
	C535.239014,218.265701 535.732483,218.546432 536.225952,218.827179 
	C535.660645,221.258560 535.712769,224.091324 534.433899,226.058884 
	C522.372070,244.615707 510.085388,263.026367 497.848907,281.469513 
	C497.494965,282.002899 496.978943,282.428802 496.246887,283.219971 
	C491.553528,279.372650 486.944977,275.594879 481.407379,271.055542 
	C491.643738,261.048004 501.479675,251.431900 511.563843,241.563812 
z"/>
<path fill="#F6F6F6" opacity="1.000000" stroke="none" 
	d="
M600.225037,224.902664 
	C604.048523,227.341873 607.872009,229.781097 611.917419,232.862961 
	C613.174377,233.968506 614.209412,234.431396 615.244446,234.894272 
	C625.280029,241.363007 635.315613,247.831757 646.030029,254.738083 
	C641.852295,259.880798 638.043213,264.569580 633.964722,269.590149 
	C614.754578,250.015228 595.520142,231.517487 576.973206,212.361404 
	C577.580750,211.687317 578.188354,211.013214 578.795898,210.339127 
	C583.795654,213.677826 588.795410,217.016525 593.702026,220.833527 
	C593.875610,226.080658 597.577087,224.521164 600.225037,224.902664 
z"/>
<path fill="#EAEAEA" opacity="1.000000" stroke="none" 
	d="
M535.384460,214.204636 
	C516.997559,232.723099 498.801514,250.933701 480.150909,269.599243 
	C476.206757,264.869507 472.518188,260.446228 468.370056,255.471893 
	C490.825378,240.385529 512.906555,225.550522 535.575317,210.320755 
	C535.575317,212.057816 535.575317,212.977310 535.384460,214.204636 
z"/>
<path fill="#EBEBEB" opacity="1.000000" stroke="none" 
	d="
M592.893188,188.644302 
	C613.226074,184.425354 633.557190,180.197449 653.894104,175.998138 
	C656.611755,175.436996 659.359314,175.020584 662.730835,174.424377 
	C663.291077,180.891754 663.800171,186.768936 664.360962,193.242096 
	C640.449097,193.242096 617.184875,193.242096 593.461853,192.698700 
	C592.966492,190.984955 592.929871,189.814636 592.893188,188.644302 
z"/>
<path fill="#EAEAEA" opacity="1.000000" stroke="none" 
	d="
M592.998718,196.014450 
	C616.475159,196.014450 639.951660,196.014450 664.216797,196.014450 
	C663.808228,201.761368 663.403137,207.459824 662.938599,213.993637 
	C639.492493,209.371628 616.591248,204.857040 593.346497,199.759155 
	C593.001526,198.122070 593.000122,197.068253 592.998718,196.014450 
z"/>
<path fill="#E8E8E8" opacity="1.000000" stroke="none" 
	d="
M532.174561,252.195190 
	C526.519958,266.034698 521.003113,279.513611 515.196655,293.699921 
	C509.510101,290.652344 504.201263,287.807220 498.620667,284.816437 
	C510.901581,266.282013 522.803345,248.319763 535.275146,229.497253 
	C536.687683,237.986145 535.908020,245.090012 532.174561,252.195190 
z"/>
<path fill="#F6F6F6" opacity="1.000000" stroke="none" 
	d="
M523.699829,142.126556 
	C520.841064,137.998535 517.982300,133.870514 515.061035,129.046082 
	C514.308899,127.575966 513.619446,126.802254 512.929993,126.028534 
	C509.676239,121.285194 506.422455,116.541870 503.083740,111.104065 
	C502.286163,109.625999 501.573486,108.842415 500.860809,108.058823 
	C499.130310,106.587784 497.974121,105.046776 500.716766,103.491470 
	C505.016998,101.052864 509.360016,98.689743 514.295044,95.956795 
	C524.082825,119.395836 533.588379,142.158905 542.950195,165.686859 
	C542.426697,167.281036 542.046875,168.110352 541.666992,168.939667 
	C536.363770,161.083939 531.060608,153.228226 525.751587,144.681351 
	C525.063843,143.368973 524.381836,142.747757 523.699829,142.126556 
z"/>
<path fill="#EDEDED" opacity="1.000000" stroke="none" 
	d="
M456.639282,173.568481 
	C454.989166,173.102737 453.706512,172.830521 451.854980,172.437592 
	C453.503693,166.769699 455.089447,161.318130 456.772827,155.530991 
	C482.234497,165.906937 507.088104,176.035095 533.241455,186.692902 
	C530.866394,187.331100 529.656982,188.067368 528.626038,187.870209 
	C516.883423,185.624557 505.019562,183.795364 493.486206,180.732361 
	C481.452240,177.536392 469.055511,176.635086 456.639282,173.568481 
z"/>
<path fill="#EBEBEB" opacity="1.000000" stroke="none" 
	d="
M455.999390,196.005814 
	C482.564484,196.005814 509.129578,196.005814 535.694641,196.005814 
	C535.791687,196.491867 535.888733,196.977921 535.985779,197.463989 
	C509.650238,202.780243 483.314697,208.096497 456.519257,212.904663 
	C456.039337,206.932999 456.019348,201.469406 455.999390,196.005814 
z"/>
<path fill="#EAEAEA" opacity="1.000000" stroke="none" 
	d="
M455.991425,176.079269 
	C474.078156,179.563202 492.166534,183.038620 510.250916,186.534683 
	C519.114807,188.248199 527.971313,190.000031 536.831116,191.734543 
	C536.788330,192.239868 536.745483,192.745193 536.702637,193.250519 
	C510.108582,193.250519 483.514526,193.250519 456.463135,192.673248 
	C456.001007,186.757065 455.996216,181.418167 455.991425,176.079269 
z"/>
<path fill="#EAEAEA" opacity="1.000000" stroke="none" 
	d="
M592.886414,160.616730 
	C606.615723,147.304581 620.345032,133.992416 634.431946,120.333519 
	C637.567749,124.095207 641.259033,128.523224 645.460083,133.562729 
	C627.938843,145.283783 610.872986,156.700195 593.436401,167.848846 
	C593.005798,165.259628 592.946106,162.938156 592.886414,160.616730 
z"/>
<path fill="#E8E8E8" opacity="1.000000" stroke="none" 
	d="
M536.693542,100.832199 
	C541.643372,125.057892 546.593262,149.283585 551.543152,173.509277 
	C550.945251,173.690704 550.347412,173.872131 549.749573,174.053558 
	C539.805176,150.305069 529.860779,126.556587 520.348633,102.416290 
	C526.085083,101.627060 531.389343,101.229630 536.693542,100.832199 
z"/>
<path fill="#E6E6E6" opacity="1.000000" stroke="none" 
	d="
M555.691040,100.967064 
	C555.691040,125.827522 555.691040,150.687973 555.691040,175.548431 
	C555.263184,175.616257 554.835327,175.684082 554.407471,175.751892 
	C549.476013,151.179108 544.544617,126.606300 540.059998,101.566605 
	C545.568176,101.055489 550.629639,101.011276 555.691040,100.967064 
z"/>
<path fill="#EAEAEA" opacity="1.000000" stroke="none" 
	d="
M592.988892,142.962799 
	C600.914734,130.701462 608.840576,118.440140 617.146362,105.591011 
	C622.240051,109.716591 626.831421,113.435326 632.184998,117.771370 
	C619.116333,130.739639 606.414368,143.344009 593.375732,155.618134 
	C593.022339,151.179504 593.005615,147.071136 592.988892,142.962799 
z"/>
<path fill="#EBEBEB" opacity="1.000000" stroke="none" 
	d="
M593.128662,232.688110 
	C605.718872,245.685944 618.309082,258.683777 631.289368,272.084381 
	C627.356018,275.352386 622.960205,279.004639 618.067139,283.070007 
	C609.496338,270.286224 601.287415,258.042267 593.027466,244.989105 
	C593.027100,240.349304 593.077881,236.518723 593.128662,232.688110 
z"/>
<path fill="#FBFBFA" opacity="1.000000" stroke="none" 
	d="
M558.349243,100.957535 
	C558.349243,96.672783 558.349243,92.388031 558.349243,87.358452 
	C564.277588,87.805717 569.973145,88.235420 576.461304,88.724915 
	C572.140991,111.087532 567.943970,132.812149 563.187256,154.596954 
	C562.413208,152.881012 562.019348,151.105545 562.012817,149.328659 
	C561.961304,135.246933 561.953308,121.164841 562.007935,107.083153 
	C562.019104,104.213036 561.663818,101.751678 558.349243,100.957535 
z"/>
<path fill="#F6F6F6" opacity="1.000000" stroke="none" 
	d="
M578.088989,264.009888 
	C578.088989,259.065430 578.088989,254.618637 578.088989,250.171844 
	C578.401978,250.078262 578.714905,249.984665 579.027893,249.891083 
	C585.088989,264.320587 591.150024,278.750092 597.578918,294.055145 
	C591.649170,295.962280 585.954834,297.793732 579.698303,299.805969 
	C576.828247,287.642456 578.598206,276.010101 578.088989,264.009888 
z"/>
<path fill="#E6E6E6" opacity="1.000000" stroke="none" 
	d="
M535.757629,296.529175 
	C534.695679,297.686798 533.508972,299.153778 532.719727,298.964447 
	C527.762512,297.775177 522.893738,296.217255 517.479309,294.629822 
	C523.412231,280.056976 529.097473,266.092499 534.782715,252.128021 
	C535.127380,252.168442 535.471985,252.208862 535.816650,252.249283 
	C535.816650,266.857117 535.816650,281.464966 535.757629,296.529175 
z"/>
<path fill="#E8E8E8" opacity="1.000000" stroke="none" 
	d="
M593.098450,250.786377 
	C600.654541,261.821716 608.210632,272.857086 616.110840,284.395020 
	C610.478516,287.444092 605.460999,290.160278 599.972351,293.131592 
	C596.891052,285.980927 594.030090,279.341675 591.542236,272.242981 
	C592.279419,270.265411 592.915222,268.754974 592.958496,267.227753 
	C593.113464,261.750336 593.068054,256.267303 593.098450,250.786377 
z"/>
<path fill="#EDEDED" opacity="1.000000" stroke="none" 
	d="
M592.759644,111.274048 
	C594.594238,106.180550 596.428833,101.087051 598.487061,95.372665 
	C604.231689,98.438972 609.424438,101.210670 615.188538,104.287384 
	C607.821106,115.421844 600.741272,126.121658 593.346924,136.541321 
	C592.941467,127.932129 592.850586,119.603088 592.759644,111.274048 
z"/>
<path fill="#FFFFFD" opacity="1.000000" stroke="none" 
	d="
M592.628845,300.828918 
	C593.011108,312.159241 592.992920,323.484039 592.973083,335.258423 
	C588.197388,335.708008 583.423401,335.708008 578.383179,335.708008 
	C578.383179,328.089630 578.383179,320.681580 578.383179,313.175415 
	C580.129578,312.705658 581.866943,312.238342 583.921204,311.685791 
	C583.515991,309.011200 583.128174,306.451599 582.703674,303.649750 
	C585.961243,302.683105 589.094788,301.753204 592.628845,300.828918 
z"/>
<path fill="#F6F6F6" opacity="1.000000" stroke="none" 
	d="
M592.441650,111.488037 
	C592.850586,119.603088 592.941467,127.932129 593.066406,136.744232 
	C584.449463,150.538513 575.798584,163.849701 567.147705,177.160904 
	C566.657288,176.919449 566.166870,176.677994 565.676453,176.436523 
	C574.492188,154.858353 583.307922,133.280197 592.441650,111.488037 
z"/>
<path fill="#F6F6F6" opacity="1.000000" stroke="none" 
	d="
M593.021362,250.456055 
	C593.068054,256.267303 593.113464,261.750336 592.958496,267.227753 
	C592.915222,268.754974 592.279419,270.265411 591.529297,271.883728 
	C587.093628,262.516266 582.655945,253.188339 579.175537,243.515900 
	C577.673828,239.342682 578.152344,234.456924 577.731323,229.894852 
	C578.154968,229.726700 578.578613,229.558548 579.002258,229.390381 
	C583.649597,236.302170 588.296936,243.213959 593.021362,250.456055 
z"/>
<path fill="#E6E6E6" opacity="1.000000" stroke="none" 
	d="
M558.259888,101.421204 
	C561.663818,101.751678 562.019104,104.213036 562.007935,107.083153 
	C561.953308,121.164841 561.961304,135.246933 562.012817,149.328659 
	C562.019348,151.105545 562.413208,152.881012 562.979736,154.925964 
	C562.067139,162.009995 560.802429,168.825165 559.537720,175.640350 
	C559.082031,175.614594 558.626282,175.588821 558.170593,175.563065 
	C558.170593,151.003677 558.170593,126.444275 558.259888,101.421204 
z"/>
<path fill="#FBFBFA" opacity="1.000000" stroke="none" 
	d="
M555.770752,100.511307 
	C550.629639,101.011276 545.568176,101.055489 540.004944,101.144592 
	C538.661438,97.351089 537.819763,93.512703 536.825134,88.976738 
	C543.230896,88.385681 549.224304,87.832664 555.850464,87.221268 
	C555.850464,91.906334 555.850464,95.980942 555.770752,100.511307 
z"/>
<path fill="#ECECEC" opacity="1.000000" stroke="none" 
	d="
M835.014465,284.882812 
	C808.283691,284.949615 781.552979,285.023071 754.822205,285.079254 
	C746.519165,285.096710 738.216003,285.067322 729.455383,284.656097 
	C729.000061,283.824768 729.002258,283.396790 729.463379,282.865692 
	C751.506836,282.752930 773.091492,282.711212 794.676025,282.745300 
	C808.116821,282.766541 821.557434,282.902374 835.001099,283.302765 
	C835.007507,284.040131 835.010986,284.461456 835.014465,284.882812 
z"/>
<path fill="#F6F6F6" opacity="1.000000" stroke="none" 
	d="
M592.689697,143.121368 
	C593.005615,147.071136 593.022339,151.179504 593.069458,155.767334 
	C585.664917,163.811935 578.229858,171.377075 570.272461,178.873764 
	C569.601562,178.699463 569.452881,178.593628 569.304260,178.487762 
	C576.999634,166.751816 584.695068,155.015869 592.689697,143.121368 
z"/>
<path fill="#F8F8F8" opacity="1.000000" stroke="none" 
	d="
M536.650940,100.404160 
	C531.389343,101.229630 526.085083,101.627060 520.304077,102.045158 
	C518.836975,100.025398 517.846680,97.984970 516.485229,95.179825 
	C522.507324,93.252861 528.187134,91.435394 534.402100,89.446709 
	C535.222168,93.360367 535.915222,96.668243 536.650940,100.404160 
z"/>
<path fill="#F6F6F6" opacity="1.000000" stroke="none" 
	d="
M592.991150,232.393692 
	C593.077881,236.518723 593.027100,240.349304 592.968262,244.653061 
	C587.481262,236.631058 579.568054,229.463715 577.676819,219.011536 
	C578.201660,218.601715 578.726501,218.191879 579.251404,217.782059 
	C583.785461,222.554459 588.319519,227.326859 592.991150,232.393692 
z"/>
<path fill="#F6F6F6" opacity="1.000000" stroke="none" 
	d="
M592.568848,160.754181 
	C592.946106,162.938156 593.005798,165.259628 593.107910,167.974625 
	C586.236084,173.163269 579.322021,177.958374 572.407898,182.753479 
	C572.075195,182.377396 571.742493,182.001312 571.409790,181.625229 
	C578.356934,174.714035 585.304138,167.802841 592.568848,160.754181 
z"/>
<path fill="#F8F8F8" opacity="1.000000" stroke="none" 
	d="
M455.550659,195.904358 
	C456.019348,201.469406 456.039337,206.932999 456.095337,212.891312 
	C454.746857,213.687424 453.362366,213.988800 451.321320,214.433105 
	C450.731293,208.050446 450.184448,202.134628 449.599152,195.802902 
	C451.908386,195.802902 453.505127,195.802902 455.550659,195.904358 
z"/>
<path fill="#F8F8F8" opacity="1.000000" stroke="none" 
	d="
M455.649628,175.918365 
	C455.996216,181.418167 456.001007,186.757065 456.005035,192.565887 
	C454.198029,193.130524 452.391815,193.225220 449.699127,193.366379 
	C450.212189,187.227493 450.698273,181.411484 451.228699,175.064926 
	C452.869293,175.343460 454.088562,175.550461 455.649628,175.918365 
z"/>
<path fill="#FFFFFF" opacity="1.000000" stroke="none" 
	d="
M835.475891,284.965149 
	C835.010986,284.461456 835.007507,284.040131 835.459229,283.194458 
	C845.613464,282.811554 855.312317,282.852966 865.011230,282.894409 
	C865.266846,283.478943 865.522522,284.063507 865.857544,284.957336 
	C855.937012,285.193542 845.937195,285.120514 835.475891,284.965149 
z"/>
<path fill="#FFFFFF" opacity="1.000000" stroke="none" 
	d="
M729.004517,282.968811 
	C729.002258,283.396790 729.000061,283.824768 728.992188,284.573730 
	C719.303406,284.947723 709.620239,285.000763 699.475708,284.971191 
	C699.009216,284.462555 699.004089,284.036591 699.455933,283.183868 
	C709.610168,282.827698 719.307312,282.898254 729.004517,282.968811 
z"/>
<path fill="#F6F6F6" opacity="1.000000" stroke="none" 
	d="
M592.464172,188.665802 
	C592.929871,189.814636 592.966492,190.984955 593.003174,192.594299 
	C587.725342,193.033295 582.447571,193.033295 577.169739,193.033295 
	C577.113403,192.577133 577.057007,192.120987 577.000671,191.664825 
	C582.012146,190.672318 587.023621,189.679810 592.464172,188.665802 
z"/>
<path fill="#F6F6F6" opacity="1.000000" stroke="none" 
	d="
M592.542236,195.909912 
	C593.000122,197.068253 593.001526,198.122070 593.000000,199.571014 
	C588.036682,199.144440 583.076294,198.322693 578.115967,197.500946 
	C578.158875,196.935745 578.201843,196.370560 578.244751,195.805359 
	C582.858398,195.805359 587.472046,195.805359 592.542236,195.909912 
z"/>
<path fill="#E8E8E8" opacity="1.000000" stroke="none" 
	d="
M541.784485,169.225983 
	C542.046875,168.110352 542.426697,167.281036 543.005737,166.039337 
	C544.970276,169.450836 546.735657,173.274734 548.501038,177.098618 
	C548.126038,177.310455 547.751038,177.522278 547.376038,177.734100 
	C545.551331,174.993515 543.726685,172.252914 541.784485,169.225983 
z"/>
<path fill="#EAEAEA" opacity="1.000000" stroke="none" 
	d="
M600.071228,224.601257 
	C597.577087,224.521164 593.875610,226.080658 593.906494,221.107056 
	C596.108582,222.034805 598.013000,223.167343 600.071228,224.601257 
z"/>
<path fill="#E8E8E8" opacity="1.000000" stroke="none" 
	d="
M494.443970,219.264374 
	C494.939667,218.714035 495.751556,218.092484 496.780396,217.732010 
	C496.251617,218.393112 495.505920,218.793137 494.443970,219.264374 
z"/>
<path fill="#EAEAEA" opacity="1.000000" stroke="none" 
	d="
M615.088379,234.604858 
	C614.209412,234.431396 613.174377,233.968506 612.123413,233.122437 
	C613.049133,233.264664 613.990723,233.790054 615.088379,234.604858 
z"/>
<path fill="#E8E8E8" opacity="1.000000" stroke="none" 
	d="
M500.931091,108.375114 
	C501.573486,108.842415 502.286163,109.625999 502.986206,110.787811 
	C502.316162,110.341156 501.658752,109.516281 500.931091,108.375114 
z"/>
<path fill="#E8E8E8" opacity="1.000000" stroke="none" 
	d="
M512.991089,126.338875 
	C513.619446,126.802254 514.308899,127.575966 514.981812,128.715363 
	C514.327576,128.270432 513.689819,127.459824 512.991089,126.338875 
z"/>
<path fill="#E8E8E8" opacity="1.000000" stroke="none" 
	d="
M543.028320,176.970612 
	C543.914062,177.580933 544.564758,178.415741 545.215393,179.250565 
	C545.018311,179.449753 544.821167,179.648956 544.624084,179.848160 
	C543.975952,179.298889 543.327820,178.749619 542.512756,177.933380 
	C542.494995,177.509308 542.644165,177.352203 543.028320,176.970612 
z"/>
<path fill="#E8E8E8" opacity="1.000000" stroke="none" 
	d="
M523.765991,142.450012 
	C524.381836,142.747757 525.063843,143.368973 525.621826,144.391998 
	C524.942505,144.120346 524.387268,143.446899 523.765991,142.450012 
z"/>
<path fill="#E8E8E8" opacity="1.000000" stroke="none" 
	d="
M645.619995,251.465714 
	C645.962952,251.134369 646.524841,251.079041 647.509094,251.010803 
	C647.234009,251.245834 646.536438,251.493790 645.619995,251.465714 
z"/>
<path fill="#FFFFFF" opacity="1.000000" stroke="none" 
	d="
M152.395142,186.043915 
	C152.336914,185.714142 152.665771,185.453232 153.317810,185.157150 
	C153.354736,185.452255 153.068497,185.782516 152.395142,186.043915 
z"/>
<path fill="#EAEAEA" opacity="1.000000" stroke="none" 
	d="
M541.634399,182.350769 
	C541.331055,182.029022 541.027771,181.707260 540.724487,181.385498 
	C541.113647,181.322205 541.502869,181.258911 541.894653,181.647156 
	C541.897339,182.098709 541.634399,182.350769 541.634399,182.350769 
z"/>
<path fill="#EAEAEA" opacity="1.000000" stroke="none" 
	d="
M542.028442,181.972321 
	C542.338928,182.116287 542.518250,182.386658 542.697632,182.657013 
	C542.453674,182.688477 542.209656,182.719940 541.800049,182.551086 
	C541.634399,182.350769 541.897339,182.098709 542.028442,181.972321 
z"/>
<path fill="#F6F6F6" opacity="1.000000" stroke="none" 
	d="
M569.955566,178.986176 
	C569.806763,179.379730 569.452576,179.592438 569.098267,179.805145 
	C569.043762,179.533127 568.989258,179.261108 569.119507,178.738434 
	C569.452881,178.593628 569.601562,178.699463 569.955566,178.986176 
z"/>
<path fill="#3F3F3F" opacity="1.000000" stroke="none" 
	d="
M729.463379,282.865723 
	C719.307312,282.898254 709.610168,282.827698 699.454407,282.864349 
	C695.550659,282.971558 692.105408,282.971558 688.312988,282.971558 
	C688.312988,265.227264 688.312988,248.094711 688.312988,230.277374 
	C691.570251,230.277374 694.831299,230.277374 699.000122,230.276855 
	C709.607971,230.200470 719.307983,230.124588 729.008057,230.048706 
	C747.083191,230.138138 765.158203,230.251648 783.233398,230.307999 
	C794.183044,230.342148 805.132874,230.287781 816.999268,230.272415 
	C823.608582,230.194855 829.301331,230.118057 835.452637,230.149139 
	C845.903992,230.336700 855.896729,230.416382 865.889526,230.496063 
	C865.773804,247.752151 865.658081,265.008240 865.276794,282.579346 
	C855.312317,282.852966 845.613464,282.811554 835.456360,282.878448 
	C821.557434,282.902374 808.116821,282.766541 794.676025,282.745300 
	C773.091492,282.711212 751.506836,282.752930 729.463379,282.865723 
z"/>
<path fill="#FFFFFD" opacity="1.000000" stroke="none" 
	d="
M865.910156,230.053925 
	C855.896729,230.416382 845.903992,230.336700 835.462402,229.856491 
	C835.019897,229.065796 835.026123,228.675613 835.032349,228.285431 
	C845.032654,228.186203 855.032959,228.086960 865.494141,227.915070 
	C865.946960,228.432220 865.938843,229.022018 865.910156,230.053925 
z"/>
<path fill="#3D3D3D" opacity="1.000000" stroke="none" 
	d="
M728.981628,156.835312 
	C730.943604,156.949799 732.905518,157.064270 735.452026,157.212845 
	C735.452026,172.788864 735.452026,188.178665 735.452026,203.656067 
	C737.849609,203.836716 739.651855,203.972504 741.723999,204.128632 
	C741.723999,211.927643 741.723999,219.684433 741.723999,228.087204 
	C737.753052,228.087204 733.821228,228.087204 728.972046,228.089966 
	C718.379028,228.152878 708.703308,228.213028 699.027588,228.273193 
	C695.558960,228.273193 692.090393,228.273193 688.294312,228.273193 
	C688.294312,220.001617 688.294312,212.269836 688.294312,204.167114 
	C690.249878,204.022400 692.176025,203.879883 694.818115,203.684387 
	C694.818115,200.354263 694.818054,197.085236 694.818115,193.816208 
	C694.818359,182.819809 694.871704,171.822968 694.778442,160.827362 
	C694.757324,158.333481 694.978943,156.492188 699.040283,156.978882 
	C709.622864,156.931107 719.302246,156.883209 728.981628,156.835312 
M711.633118,220.073563 
	C717.297363,221.629944 721.173523,219.834015 721.986511,215.172333 
	C722.628723,211.490036 721.288147,208.631775 717.853699,207.063675 
	C714.328125,205.453995 711.253845,206.583328 709.210876,209.617126 
	C706.709534,213.331573 707.553467,216.794540 711.633118,220.073563 
z"/>
<path fill="#FFFFFF" opacity="1.000000" stroke="none" 
	d="
M699.031982,228.571854 
	C708.703308,228.213028 718.379028,228.152878 728.513367,228.185669 
	C728.977356,228.671951 728.982666,229.065277 728.998047,229.753662 
	C719.307983,230.124588 709.607971,230.200470 699.448608,230.170303 
	C699.005005,229.666351 699.020752,229.268448 699.031982,228.571854 
z"/>
<path fill="#FFFFFD" opacity="1.000000" stroke="none" 
	d="
M728.987549,156.532318 
	C719.302246,156.883209 709.622864,156.931107 699.481018,156.906372 
	C699.013123,156.428680 699.007629,156.023590 699.001831,155.314667 
	C708.693481,154.949097 718.385437,154.887344 728.537537,154.921341 
	C728.996277,155.421158 728.994873,155.825226 728.987549,156.532318 
z"/>
<path fill="#3E3E3E" opacity="1.000000" stroke="none" 
	d="
M768.797241,188.374207 
	C768.789856,181.272522 768.516968,174.592010 768.918030,167.952194 
	C769.062500,165.561142 770.237366,162.613449 771.965698,161.055786 
	C776.705261,156.784531 776.967346,156.030838 773.706299,153.570999 
	C775.170227,152.475693 776.844177,151.223236 778.518127,149.970795 
	C777.894409,149.279709 777.270691,148.588623 776.646973,147.897522 
	C777.772827,149.852676 778.898743,151.807816 779.960938,153.652374 
	C776.975098,156.202957 777.351440,156.971008 781.617004,160.909790 
	C783.650269,162.787354 784.958801,166.237503 785.208496,169.096466 
	C785.742798,175.214523 785.262756,181.415039 785.461304,187.573303 
	C785.506104,188.964081 786.266113,191.086594 787.306458,191.575668 
	C799.993286,197.540039 804.619690,207.864136 803.936646,221.253281 
	C803.835388,223.237930 803.922607,225.232162 803.922607,227.639511 
	C786.037170,227.639511 768.349426,227.639511 750.665710,227.639511 
	C748.327454,212.025757 751.126343,198.471313 767.044312,191.430130 
	C767.856140,191.070984 768.223633,189.707382 768.797241,188.374207 
z"/>
<path fill="#ECECEC" opacity="1.000000" stroke="none" 
	d="
M834.571045,228.189575 
	C835.026123,228.675613 835.019897,229.065796 835.003845,229.748611 
	C829.301331,230.118057 823.608582,230.194855 817.457886,230.165833 
	C817.000000,229.664154 817.000122,229.268280 816.999146,228.575531 
	C822.702026,228.216995 828.405823,228.155350 834.571045,228.189575 
z"/>
<path fill="#E6E6E6" opacity="1.000000" stroke="none" 
	d="
M381.260376,117.370972 
	C387.680878,111.148598 394.172546,110.136108 400.369446,114.129280 
	C405.998230,117.756416 408.456146,124.583496 406.402618,130.603729 
	C404.364777,136.578110 400.086853,140.023727 394.018219,140.730331 
	C388.284210,141.397949 383.551514,138.921783 380.475128,134.014709 
	C377.045105,128.543564 377.332947,122.996643 381.260376,117.370972 
M396.153015,121.019882 
	C395.362457,120.771904 393.965607,120.647453 393.885620,120.254707 
	C393.527252,118.495804 393.543884,116.660484 393.425171,114.852753 
	C393.031250,114.884087 392.637360,114.915421 392.243439,114.946754 
	C392.243439,118.749886 392.243439,122.553009 392.243439,126.755409 
	C395.584015,123.742973 398.353760,121.245293 401.123505,118.747604 
	C400.763336,118.357193 400.403168,117.966782 400.042999,117.576370 
	C398.941040,118.548813 397.839081,119.521263 396.153015,121.019882 
z"/>
<path fill="#F6F6F6" opacity="1.000000" stroke="none" 
	d="
M838.238281,206.388840 
	C844.673096,207.771255 847.539307,211.855362 845.528076,216.312134 
	C843.999512,219.699402 841.124817,221.921997 837.672302,220.611984 
	C835.345703,219.729202 832.800964,217.069031 832.125793,214.699127 
	C830.898743,210.392273 833.606018,207.586151 838.238281,206.388840 
z"/>
<path fill="#F8F8F8" opacity="1.000000" stroke="none" 
	d="
M711.308105,219.853210 
	C707.553467,216.794540 706.709534,213.331573 709.210876,209.617126 
	C711.253845,206.583328 714.328125,205.453995 717.853699,207.063675 
	C721.288147,208.631775 722.628723,211.490036 721.986511,215.172333 
	C721.173523,219.834015 717.297363,221.629944 711.308105,219.853210 
z"/>
<path fill="#434343" opacity="1.000000" stroke="none" 
	d="
M396.445068,120.756798 
	C397.839081,119.521263 398.941040,118.548813 400.042999,117.576370 
	C400.403168,117.966782 400.763336,118.357193 401.123505,118.747604 
	C398.353760,121.245293 395.584015,123.742973 392.243439,126.755409 
	C392.243439,122.553009 392.243439,118.749886 392.243439,114.946754 
	C392.637360,114.915421 393.031250,114.884087 393.425171,114.852753 
	C393.543884,116.660484 393.527252,118.495804 393.885620,120.254707 
	C393.965607,120.647453 395.362457,120.771904 396.445068,120.756798 
z"/>
</svg>