<svg version="1.1" id="Layer_1" xmlns="http://www.w3.org/2000/svg" xmlns:xlink="http://www.w3.org/1999/xlink" x="0px" y="0px"
	 width="100%" viewBox="0 0 892 366" enable-background="new 0 0 892 366" xml:space="preserve">
<path fill="#FFFFFF" opacity="1.000000" stroke="none" 
	d="
M1.000000,120.000000 
	C1.000000,80.348495 1.000000,40.696991 1.000002,1.051083 
	C298.333344,1.056680 595.666687,1.056680 893.000000,1.056680 
	C893.000000,40.431545 893.000000,79.749733 892.532837,119.541351 
	C889.403015,120.016464 886.707764,120.284027 884.085022,119.961578 
	C879.384460,119.383713 877.852783,120.955894 877.890137,125.892426 
	C878.111816,155.179047 877.983337,184.468307 877.511475,213.834534 
	C867.040894,213.862839 857.031555,213.813278 847.021179,213.309875 
	C847.015686,183.553909 846.965088,154.251633 847.068298,124.949898 
	C847.080444,121.498512 846.507141,119.904961 842.487793,119.924866 
	C811.022034,120.080688 779.555176,119.990662 748.088623,120.027779 
	C741.480774,120.035576 741.001587,120.606918 741.001038,127.117012 
	C740.994507,202.037277 740.990234,276.957550 740.537354,351.977783 
	C736.727356,352.011658 733.365295,351.945526 729.926880,351.690430 
	C729.699158,351.262054 729.490234,351.094604 729.145264,350.536438 
	C729.060547,312.968811 729.041504,275.863861 729.082092,238.758926 
	C729.084351,236.725449 727.952759,233.969925 731.773071,233.453949 
	C732.167725,233.400665 732.356323,227.551300 732.089417,227.504074 
	C727.194031,226.637375 729.177429,222.881317 729.132385,220.409134 
	C728.937073,209.672104 729.048706,198.929489 729.048706,187.771194 
	C722.630859,187.771194 716.829224,187.771194 711.034912,187.479446 
	C711.029175,186.798813 711.016052,186.409927 711.460938,185.916565 
	C717.502197,185.812088 723.085388,185.812088 729.065796,185.812088 
	C729.065796,182.607346 728.954773,179.982101 729.090698,177.369705 
	C729.320435,172.953781 727.369873,170.958694 722.920288,171.064758 
	C718.955750,171.159256 714.983948,170.950027 711.013794,170.414032 
	C711.007385,154.963028 710.871643,139.970963 711.085449,124.983887 
	C711.142090,121.015068 709.960876,119.911346 706.016418,119.929688 
	C674.037964,120.078354 642.058044,120.096413 610.079956,119.915863 
	C605.716919,119.891235 604.860535,121.425720 604.911926,125.386017 
	C605.108704,140.540176 604.986206,155.698471 604.524353,170.953644 
	C597.781738,171.070053 591.497314,171.140961 585.213867,171.087357 
	C581.041016,171.051743 579.169067,173.163269 579.131042,177.164078 
	C579.104919,179.908508 579.126038,182.653381 579.126038,185.990784 
	C587.864807,185.990784 595.933044,185.990784 603.994385,186.290619 
	C603.983154,186.990158 603.978882,187.389893 603.514282,187.873108 
	C595.133545,187.956619 587.213196,187.956619 579.139893,187.956619 
	C579.139893,199.873474 579.182251,211.031860 579.098694,222.189301 
	C579.084595,224.076614 580.174072,226.542191 576.750244,227.346100 
	C576.181091,227.479721 575.824951,232.792526 576.447754,233.044037 
	C580.800232,234.801636 579.044861,238.320786 579.073914,241.052322 
	C579.229736,255.712341 579.171936,270.374939 579.142029,285.036560 
	C579.097290,307.023682 579.014465,329.010773 578.742249,351.097839 
	C578.276855,351.378662 578.097107,351.619415 577.603638,352.001526 
	C576.144897,352.014862 575.080261,351.946716 574.014771,351.417908 
	C574.008545,276.336090 574.003662,201.714966 573.996582,127.093849 
	C573.995911,120.250740 573.791443,120.023445 567.010681,120.017815 
	C543.691589,119.998444 520.372498,119.999512 496.925110,119.590286 
	C494.982697,98.869331 493.168610,78.550873 491.353607,58.222214 
	C486.925812,58.222214 482.639893,58.222214 478.582855,58.222214 
	C476.655212,78.964172 474.749420,99.470634 472.421997,119.985039 
	C469.063202,119.664841 467.830872,120.788948 467.941711,123.917366 
	C468.147369,129.723083 467.895203,135.544037 468.047638,141.353027 
	C468.123444,144.242523 468.673218,147.119583 469.037476,150.433212 
	C466.828094,165.224899 464.589783,179.585632 462.306580,194.234299 
	C458.823151,194.234299 456.067993,194.234299 453.004211,194.234299 
	C453.004211,198.095123 453.004211,201.547028 452.755371,205.174011 
	C452.640167,206.225998 452.773804,207.102890 452.900696,208.442261 
	C452.894012,212.046692 452.894012,215.188660 452.894012,218.432632 
	C454.472626,218.804993 455.775360,219.112274 457.339203,219.481140 
	C455.314941,227.475494 453.459656,235.051132 451.471985,242.591873 
	C448.765442,252.860016 448.722137,252.848602 437.941467,251.628937 
	C437.595917,248.923264 437.048981,246.636093 437.045929,244.348221 
	C436.993256,204.884033 436.966614,165.419647 437.069489,125.955666 
	C437.079987,121.928993 436.352478,119.899803 431.639160,119.924583 
	C399.669006,120.092651 367.697296,120.069153 335.726807,119.936012 
	C331.993866,119.920464 330.863983,121.005135 330.920929,124.741951 
	C331.123962,138.060104 331.052887,151.383743 330.936310,164.703979 
	C330.920319,166.531128 330.060791,168.350891 329.393677,169.876236 
	C325.367310,154.360321 315.483032,145.072968 300.820282,140.031799 
	C300.889404,133.155365 300.889404,126.779999 300.889404,119.958382 
	C297.540192,119.958382 294.915924,119.958382 292.215881,119.568512 
	C292.589844,117.231239 293.039612,115.283844 293.582825,112.931717 
	C293.218628,112.529480 292.224396,111.431358 291.298035,110.408234 
	C290.310394,111.489006 289.280731,112.615776 289.204834,112.698814 
	C289.623016,115.761215 289.915161,117.900841 289.725769,120.032013 
	C259.773560,120.020859 230.301971,120.137772 200.833252,119.899376 
	C195.840836,119.858986 194.876343,121.503677 194.892059,126.132904 
	C195.056046,174.417603 194.995941,222.703064 194.560608,271.084473 
	C192.304886,271.204224 190.436295,270.985504 188.688171,271.347900 
	C187.734283,271.545624 186.984497,272.727966 186.142654,273.466217 
	C186.949249,274.244690 187.658279,275.519135 188.582245,275.700897 
	C190.661667,276.109924 192.847580,275.977386 194.981689,276.336975 
	C194.971054,276.970978 194.968887,277.333282 194.584320,277.780426 
	C192.450272,277.865295 190.698669,277.865295 188.567566,277.865295 
	C188.567566,302.998413 188.567566,327.421143 188.567566,351.716888 
	C181.766113,351.716888 175.361572,351.716888 168.674194,351.716888 
	C168.674194,299.698151 168.674194,248.078873 168.674194,196.277924 
	C166.935654,196.111450 165.477417,195.971802 164.012665,195.374329 
	C164.003922,171.954254 163.904709,148.991272 164.083374,126.030441 
	C164.118057,121.573189 162.976501,119.887436 158.215439,119.915367 
	C126.768250,120.099869 95.318993,120.093193 63.871658,119.920448 
	C59.235901,119.894989 57.866341,121.357147 57.903847,125.938225 
	C58.094551,149.231628 57.984447,172.527496 57.517403,195.895630 
	C47.043781,195.922852 37.032433,195.876968 27.014408,195.373322 
	C27.005190,171.596451 26.909647,148.276627 27.089123,124.958908 
	C27.120037,120.942673 25.893265,119.776825 21.983925,119.933815 
	C14.999660,120.214287 7.995716,120.004700 1.000000,120.000000 
M483.811279,6.551591 
	C483.811279,13.992885 483.811279,21.434177 483.811279,28.625998 
	C475.517853,31.221357 475.806458,31.175686 477.590332,38.976688 
	C478.288757,42.030933 477.453094,45.490826 477.028473,48.728237 
	C476.733551,50.976707 475.947540,53.160767 475.330719,55.569794 
	C482.129242,55.569794 487.895142,55.569794 494.888763,55.569794 
	C492.214813,48.166981 490.666016,41.063599 493.688904,33.828686 
	C493.988098,33.112625 491.756622,31.049335 490.389313,30.026196 
	C489.438690,29.314873 487.956085,29.314453 486.392914,28.915140 
	C486.392914,22.453089 486.492218,16.156588 486.309052,9.868316 
	C486.272491,8.612503 485.157654,7.388100 483.811279,6.551591 
z"/>
<path fill="#3D3D3D" opacity="1.000000" stroke="none" 
	d="
M27.021088,195.831085 
	C37.032433,195.876968 47.043781,195.922852 57.981895,195.972183 
	C93.945511,195.927811 128.982346,195.879990 164.019196,195.832169 
	C165.477417,195.971802 166.935654,196.111450 168.674194,196.277924 
	C168.674194,248.078873 168.674194,299.698151 168.674194,351.716888 
	C175.361572,351.716888 181.766113,351.716888 188.567566,351.716888 
	C188.567566,327.421143 188.567566,302.998413 188.567566,277.865295 
	C190.698669,277.865295 192.450272,277.865295 195.047363,277.871033 
	C230.935959,277.826019 265.979095,277.775238 301.482849,277.807739 
	C311.620941,277.834595 321.298431,277.778229 331.439392,277.804504 
	C352.476013,277.887115 373.049194,277.887115 394.090973,277.887115 
	C394.090973,303.031219 394.090973,327.427246 394.090973,352.116425 
	C396.540588,352.116425 398.549011,351.884735 400.484802,352.161469 
	C405.558655,352.886810 408.763611,351.087158 411.067627,346.326080 
	C417.577850,332.872986 424.783539,319.750488 431.079651,306.202332 
	C434.188171,299.513275 435.896210,292.173370 438.589172,285.024506 
	C439.842041,282.774475 440.743652,280.627899 441.806793,278.096680 
	C439.598267,278.096680 438.301788,278.096680 436.608398,277.976105 
	C434.904541,273.777374 433.476013,269.691101 437.467346,266.032196 
	C447.948425,266.061798 457.969879,265.995361 468.452026,266.025208 
	C490.764618,266.121521 512.616516,266.121521 534.357056,266.121521 
	C534.357056,270.577118 534.357056,274.132599 534.357056,277.658020 
	C532.205322,277.878815 530.452820,278.058624 528.538147,278.255066 
	C528.693542,279.186920 528.710693,279.858307 528.920044,280.463226 
	C536.423828,302.142426 545.557007,323.051208 556.719910,343.158447 
	C560.923950,350.731079 565.834839,353.739349 574.015564,351.878571 
	C575.080261,351.946716 576.144897,352.014862 577.897095,352.043945 
	C578.705566,351.669189 578.826660,351.333527 578.947754,350.997864 
	C579.014465,329.010773 579.097290,307.023682 579.142029,285.036560 
	C579.171936,270.374939 579.229736,255.712341 579.073914,241.052322 
	C579.044861,238.320786 580.800232,234.801636 576.447754,233.044037 
	C575.824951,232.792526 576.181091,227.479721 576.750244,227.346100 
	C580.174072,226.542191 579.084595,224.076614 579.098694,222.189301 
	C579.182251,211.031860 579.139893,199.873474 579.139893,187.956619 
	C587.213196,187.956619 595.133545,187.956619 603.975708,187.970581 
	C614.157410,187.984558 623.417419,187.984558 633.265991,187.984558 
	C633.265991,201.341003 633.265991,214.047592 633.265991,226.562073 
	C647.626831,226.562073 661.383362,226.562073 675.674316,226.562073 
	C675.674316,213.682770 675.674316,201.106079 675.674316,187.771194 
	C687.814514,187.771194 699.421021,187.771194 711.027527,187.771194 
	C716.829224,187.771194 722.630859,187.771194 729.048706,187.771194 
	C729.048706,198.929489 728.937073,209.672104 729.132385,220.409134 
	C729.177429,222.881317 727.194031,226.637375 732.089417,227.504074 
	C732.356323,227.551300 732.167725,233.400665 731.773071,233.453949 
	C727.952759,233.969925 729.084351,236.725449 729.082092,238.758926 
	C729.041504,275.863861 729.060547,312.968811 729.103149,350.803284 
	C729.427429,351.648346 729.715332,351.763885 730.003296,351.879395 
	C733.365295,351.945526 736.727356,352.011658 740.978149,352.077087 
	C743.462463,352.076416 745.057861,352.076416 746.994324,352.076416 
	C746.994324,336.085266 747.040344,320.614197 746.942566,305.144073 
	C746.928589,302.934662 748.246643,300.052856 744.671570,298.809875 
	C744.290955,298.677551 744.596741,295.875977 744.982910,294.418304 
	C745.417664,292.777191 746.887695,291.261810 746.903992,289.681366 
	C747.056946,274.855499 746.987610,260.027405 747.005310,245.199982 
	C747.007263,243.598816 747.153625,241.997833 747.247375,240.107544 
	C749.952637,240.107544 752.259277,240.111954 754.565918,240.106888 
	C785.381226,240.039062 816.196594,239.969910 847.472839,239.987701 
	C857.619080,240.027222 867.304382,239.980133 877.372864,240.023636 
	C881.390869,239.740891 880.650818,242.341995 880.650513,244.403946 
	C880.648438,258.198547 880.538879,271.994232 880.695129,285.786957 
	C880.731140,288.962402 879.179871,292.655609 882.876404,295.228516 
	C883.430176,295.614014 883.007812,297.743652 882.682800,298.972778 
	C882.148682,300.992493 880.773743,302.920441 880.718933,304.913574 
	C880.490723,313.217377 880.623169,321.531067 880.623169,329.841125 
	C880.623230,337.129333 880.623169,344.417542 880.623169,352.000000 
	C885.073975,352.000000 889.036987,352.000000 893.000000,352.000000 
	C893.000000,355.692902 893.000000,359.385834 892.544067,363.530365 
	C595.058777,363.988007 298.029388,363.994019 1.000000,364.000000 
	C1.000000,360.307098 1.000000,356.614166 1.466321,352.511078 
	C8.718477,352.100891 15.504311,352.100891 22.750599,352.100891 
	C22.750599,299.907593 22.750599,248.194885 22.750599,196.301788 
	C24.468391,196.112442 25.744740,195.971771 27.021088,195.831085 
M436.104462,351.541687 
	C436.403168,351.654755 436.701874,351.767853 437.919678,352.078766 
	C447.941650,352.012085 457.963654,351.945435 468.905273,352.083679 
	C490.509216,352.083679 512.113159,352.083679 534.863892,352.083679 
	C533.348083,346.038361 532.493835,340.616577 530.636047,335.563721 
	C521.549438,310.848938 491.280334,297.522583 467.189117,307.878235 
	C449.069153,314.570984 436.021790,332.721924 436.104462,351.541687 
M127.406006,248.196320 
	C104.146530,248.196320 80.887054,248.196320 57.553658,248.196320 
	C57.553658,283.159515 57.553658,317.505890 57.553658,351.754547 
	C83.353828,351.754547 108.758705,351.754547 134.099747,351.754547 
	C134.099747,317.153046 134.099747,282.919159 134.099747,248.196869 
	C131.967072,248.196869 130.172241,248.196869 127.406006,248.196320 
M805.632874,274.849335 
	C803.603516,275.967499 801.156311,276.683899 799.622864,278.278870 
	C794.922913,283.167358 788.723083,287.710602 793.222778,296.053253 
	C793.589417,296.733032 793.087036,297.963135 792.817566,298.887695 
	C792.225098,300.920502 791.024902,302.904572 790.956299,304.938354 
	C790.720764,311.921051 790.865845,318.916565 790.865784,325.907196 
	C790.865784,334.506958 790.865784,343.106689 790.865784,351.726135 
	C806.464722,351.726135 821.481384,351.726135 836.818848,351.726135 
	C836.818848,336.544342 836.888672,321.753448 836.758728,306.964294 
	C836.733337,304.079590 838.207825,300.660583 834.538330,298.477509 
	C833.998596,298.156372 834.032166,295.285370 834.651794,294.872833 
	C837.516968,292.964996 835.992065,290.836090 835.356995,288.768127 
	C832.126465,278.250092 818.952454,269.877899 805.632874,274.849335 
M715.383728,227.011353 
	C716.297424,226.046829 717.968689,225.108200 718.002686,224.113602 
	C718.234619,217.330002 718.164673,210.534225 718.102600,203.743210 
	C718.071716,200.371155 716.616882,197.845581 712.971008,197.664062 
	C709.310791,197.481842 707.359436,199.929352 707.255859,203.221054 
	C707.012573,210.955566 707.178040,218.702942 707.178040,227.013260 
	C709.887207,227.013260 712.161926,227.013260 715.383728,227.011353 
M611.067139,202.168121 
	C611.067139,210.382782 611.067139,218.597443 611.067139,226.710510 
	C614.965881,226.710510 618.213745,226.710510 621.908508,226.710510 
	C621.908508,219.011383 622.189697,211.574860 621.734253,204.183777 
	C621.600464,202.011765 619.860352,199.100174 618.001221,198.068283 
	C615.166138,196.494629 612.654419,198.364624 611.067139,202.168121 
M598.034668,198.062515 
	C594.389099,197.031342 591.127014,197.986786 590.902527,201.912094 
	C590.432312,210.133408 590.759888,218.400375 590.759888,226.593689 
	C594.498596,226.593689 597.708313,226.593689 601.066101,226.593689 
	C601.066101,218.707275 601.208008,211.207458 600.961914,203.720398 
	C600.903625,201.947220 599.543030,200.216827 598.034668,198.062515 
M691.545776,226.985947 
	C693.312317,226.985947 695.078796,226.985947 697.231018,226.985947 
	C697.231018,218.787827 697.204102,211.184097 697.242798,203.580704 
	C697.260803,200.031738 695.804565,197.714935 692.070557,197.710587 
	C688.313538,197.706238 686.910645,200.061462 686.931885,203.594818 
	C686.971741,210.232895 687.078613,216.875824 686.870239,223.507721 
	C686.777222,226.468658 687.900940,227.389435 691.545776,226.985947 
M658.904175,235.899826 
	C658.905029,241.523026 658.835022,247.148178 658.988159,252.767227 
	C659.009521,253.549103 660.129822,254.301025 660.741394,255.066818 
	C661.419678,254.347946 662.664246,253.645859 662.686157,252.907516 
	C662.852783,247.289185 662.857300,241.660522 662.621033,236.047348 
	C662.604126,235.645844 660.279663,235.341461 658.904175,235.899826 
M652.339478,240.661438 
	C652.341492,244.480515 652.171692,248.312347 652.454102,252.110580 
	C652.535034,253.199020 653.923584,254.190247 654.712524,255.226028 
	C655.170410,254.942535 655.628235,254.659042 656.086121,254.375549 
	C656.086121,248.580750 656.166687,242.783768 656.009033,236.993271 
	C655.981873,235.996338 654.941895,235.026993 654.369751,234.044907 
	C653.696045,234.940750 652.797791,235.751587 652.416626,236.758163 
	C652.086365,237.630569 652.342468,238.724945 652.339478,240.661438 
M675.758667,245.472092 
	C675.754883,242.501556 675.972717,239.505142 675.630310,236.574127 
	C675.506042,235.510162 674.044128,234.602417 673.192566,233.623398 
	C672.848511,233.933716 672.504517,234.244034 672.160461,234.554352 
	C672.160461,241.268982 672.160461,247.983597 672.160461,254.698227 
	C672.560974,254.974869 672.961426,255.251511 673.361938,255.528168 
	C674.157471,254.479538 675.409729,253.523453 675.645142,252.361343 
	C676.030762,250.458481 675.755066,248.421600 675.758667,245.472092 
M643.049438,249.364319 
	C643.049072,245.065186 643.135132,240.762817 642.973511,236.469772 
	C642.942139,235.636246 641.945618,234.839050 641.394287,234.025070 
	C640.666016,234.864670 639.339417,235.682220 639.307495,236.547485 
	C639.112793,241.831390 639.081543,247.132095 639.322388,252.412277 
	C639.371033,253.477890 640.821533,254.479523 641.625732,255.510651 
	C642.100342,255.240768 642.575012,254.970886 643.049622,254.701004 
	C643.049622,253.242340 643.049622,251.783676 643.049438,249.364319 
M632.946777,245.480957 
	C632.946777,248.585739 632.946777,251.690521 632.946777,254.795303 
	C633.460571,255.043945 633.974365,255.292603 634.488159,255.541245 
	C635.247742,254.459488 636.611389,253.405975 636.663574,252.291138 
	C636.902405,247.183060 636.913696,242.051041 636.665710,236.944168 
	C636.612976,235.858795 635.135254,234.842621 634.314087,233.794556 
	C633.858337,234.081146 633.402527,234.367752 632.946777,234.654343 
	C632.946777,237.937592 632.946777,241.220840 632.946777,245.480957 
M668.988770,253.184128 
	C668.992554,247.685089 669.062683,242.184448 668.931763,236.688614 
	C668.911072,235.819885 667.982422,234.972809 667.473572,234.115723 
	C666.878723,234.906326 665.790710,235.683472 665.768677,236.489731 
	C665.618591,241.984482 665.622925,247.488037 665.833069,252.978973 
	C665.849121,253.398422 667.832764,253.742584 668.988770,253.184128 
M649.348633,248.419418 
	C649.347717,245.099350 649.527527,241.764847 649.263977,238.465744 
	C649.145325,236.980453 648.141602,235.565887 647.539429,234.119232 
	C647.027100,235.492447 646.153259,236.844849 646.072754,238.242920 
	C645.863159,241.882935 645.799255,245.558792 646.082214,249.188766 
	C646.235474,251.154831 647.216858,253.056320 647.824646,254.986938 
	C648.332397,253.121704 648.840149,251.256485 649.348633,248.419418 
z"/>
<path fill="#ECECEB" opacity="1.000000" stroke="none" 
	d="
M27.014408,195.373322 
	C25.744740,195.971771 24.468391,196.112442 22.750599,196.301788 
	C22.750599,248.194885 22.750599,299.907593 22.750599,352.100891 
	C15.504311,352.100891 8.718477,352.100891 1.466321,352.050446 
	C1.000000,274.979095 1.000000,197.958206 1.000000,120.468658 
	C7.995716,120.004700 14.999660,120.214287 21.983925,119.933815 
	C25.893265,119.776825 27.120037,120.942673 27.089123,124.958908 
	C26.909647,148.276627 27.005190,171.596451 27.014408,195.373322 
z"/>
<path fill="#E9E9E9" opacity="1.000000" stroke="none" 
	d="
M893.000000,351.531342 
	C889.036987,352.000000 885.073975,352.000000 880.623169,352.000000 
	C880.623169,344.417542 880.623230,337.129333 880.623169,329.841125 
	C880.623169,321.531067 880.490723,313.217377 880.718933,304.913574 
	C880.773743,302.920441 882.148682,300.992493 882.682800,298.972778 
	C883.007812,297.743652 883.430176,295.614014 882.876404,295.228516 
	C879.179871,292.655609 880.731140,288.962402 880.695129,285.786957 
	C880.538879,271.994232 880.648438,258.198547 880.650513,244.403946 
	C880.650818,242.341995 881.390869,239.740891 877.381531,239.721115 
	C876.993896,238.723557 876.980835,238.119095 877.408875,237.468552 
	C880.491272,237.260361 884.286743,238.328033 882.433716,233.171890 
	C880.867615,233.054184 879.423828,232.945679 877.987427,232.530243 
	C877.996643,231.813934 877.998657,231.404572 878.380005,230.880722 
	C879.207031,230.599197 880.039124,230.447556 880.046509,230.262909 
	C880.252563,225.112320 880.425415,219.958160 880.401001,214.805557 
	C880.399292,214.452103 878.818848,214.106140 877.972595,213.756683 
	C877.983337,184.468307 878.111816,155.179047 877.890137,125.892426 
	C877.852783,120.955894 879.384460,119.383713 884.085022,119.961578 
	C886.707764,120.284027 889.403015,120.016464 892.532837,120.007385 
	C893.000000,197.020889 893.000000,274.041779 893.000000,351.531342 
z"/>
<path fill="#EDEDED" opacity="1.000000" stroke="none" 
	d="
M1.000000,364.500000 
	C298.029388,363.994019 595.058777,363.988007 892.544067,363.990997 
	C892.951904,365.654388 893.621460,367.871704 890.493408,367.024261 
	C889.872314,366.856018 889.166687,367.000000 888.500000,367.000000 
	C594.166687,367.000000 299.833344,367.004395 5.500070,366.858673 
	C4.211027,366.858032 0.872537,369.328461 1.000000,364.500000 
z"/>
<path fill="#ECECEC" opacity="1.000000" stroke="none" 
	d="
M438.237885,285.127930 
	C435.896210,292.173370 434.188171,299.513275 431.079651,306.202332 
	C424.783539,319.750488 417.577850,332.872986 411.067627,346.326080 
	C408.763611,351.087158 405.558655,352.886810 400.484802,352.161469 
	C398.549011,351.884735 396.540588,352.116425 394.090973,352.116425 
	C394.090973,327.427246 394.090973,303.031219 394.090973,277.887115 
	C373.049194,277.887115 352.476013,277.887115 331.435059,277.522766 
	C330.976654,276.782898 330.985992,276.407410 331.457886,275.947693 
	C353.208984,275.863495 374.497498,275.863495 395.739594,275.863495 
	C397.467499,271.333862 395.006012,271.205536 391.960236,271.203491 
	C371.640991,271.189880 351.321869,271.089508 331.002686,270.707642 
	C330.996429,269.985229 330.990173,269.572418 331.448792,269.088440 
	C346.785309,269.017212 361.656952,269.017212 376.598572,269.017212 
	C375.461639,258.686249 370.061462,253.828552 360.395447,253.757599 
	C350.586700,253.685593 340.778076,253.597137 330.957581,253.229843 
	C330.643829,252.302307 330.341858,251.660843 330.086700,250.554398 
	C329.758636,245.321045 329.383759,240.552658 329.137939,235.527557 
	C329.483917,234.746536 329.700775,234.222244 329.980652,233.251678 
	C330.008179,220.546967 329.972656,208.288513 330.177856,195.867065 
	C330.214508,195.100815 330.010468,194.497574 329.921997,193.444672 
	C329.889008,185.388046 329.740417,177.781052 329.591797,170.174072 
	C330.060791,168.350891 330.920319,166.531128 330.936310,164.703979 
	C331.052887,151.383743 331.123962,138.060104 330.920929,124.741951 
	C330.863983,121.005135 331.993866,119.920464 335.726807,119.936012 
	C367.697296,120.069153 399.669006,120.092651 431.639160,119.924583 
	C436.352478,119.899803 437.079987,121.928993 437.069489,125.955666 
	C436.966614,165.419647 436.993256,204.884033 437.045929,244.348221 
	C437.048981,246.636093 437.595917,248.923264 437.557800,251.743668 
	C434.304810,254.573792 434.183075,261.524719 437.013824,264.470154 
	C437.009338,265.154297 437.008514,265.545227 437.007690,265.936188 
	C433.476013,269.691101 434.904541,273.777374 436.605499,278.399292 
	C437.412323,281.004669 437.825104,283.066284 438.237885,285.127930 
z"/>
<path fill="#ECECEC" opacity="1.000000" stroke="none" 
	d="
M574.014771,351.417908 
	C565.834839,353.739349 560.923950,350.731079 556.719910,343.158447 
	C545.557007,323.051208 536.423828,302.142426 528.920044,280.463226 
	C528.710693,279.858307 528.693542,279.186920 528.538147,278.255066 
	C530.452820,278.058624 532.205322,277.878815 534.357056,277.658020 
	C534.357056,274.132599 534.357056,270.577118 534.357056,266.121521 
	C512.616516,266.121521 490.764618,266.121521 468.451477,265.733887 
	C467.987427,264.957825 467.984558,264.569427 468.446289,264.107422 
	C490.696716,264.033844 512.482544,264.033844 534.466187,264.033844 
	C534.466187,259.949097 534.466187,256.390411 534.466187,252.278885 
	C530.890076,252.278885 527.580078,252.479492 524.315369,252.182434 
	C522.966125,252.059677 520.832886,251.117874 520.553711,250.126816 
	C517.692566,239.968216 515.139282,229.722870 512.496582,219.488403 
	C517.555298,218.344604 518.160461,216.041916 516.340881,207.979797 
	C495.178497,207.979797 474.042938,207.979797 452.907410,207.979797 
	C452.773804,207.102890 452.640167,206.225998 453.221863,205.219315 
	C474.817932,205.089539 495.698639,205.089539 516.717957,205.089539 
	C516.717957,201.279617 516.717957,197.891098 516.717957,194.277237 
	C515.651062,194.214752 514.826233,194.018097 514.054871,194.145401 
	C509.132385,194.957901 506.995667,193.157684 506.571075,187.938934 
	C506.048889,181.520172 504.305939,175.211395 503.429321,168.808701 
	C501.203308,152.550522 499.166138,136.266479 497.053406,119.992798 
	C520.372498,119.999512 543.691589,119.998444 567.010681,120.017815 
	C573.791443,120.023445 573.995911,120.250740 573.996582,127.093849 
	C574.003662,201.714966 574.008545,276.336090 574.014771,351.417908 
z"/>
<path fill="#EDEDED" opacity="1.000000" stroke="none" 
	d="
M847.011902,239.901077 
	C816.196594,239.969910 785.381226,240.039062 754.565918,240.106888 
	C752.259277,240.111954 749.952637,240.107544 747.247375,240.107544 
	C747.153625,241.997833 747.007263,243.598816 747.005310,245.199982 
	C746.987610,260.027405 747.056946,274.855499 746.903992,289.681366 
	C746.887695,291.261810 745.417664,292.777191 744.982910,294.418304 
	C744.596741,295.875977 744.290955,298.677551 744.671570,298.809875 
	C748.246643,300.052856 746.928589,302.934662 746.942566,305.144073 
	C747.040344,320.614197 746.994324,336.085266 746.994324,352.076416 
	C745.057861,352.076416 743.462463,352.076416 741.426147,351.977112 
	C740.990234,276.957550 740.994507,202.037277 741.001038,127.117012 
	C741.001587,120.606918 741.480774,120.035576 748.088623,120.027779 
	C779.555176,119.990662 811.022034,120.080688 842.487793,119.924866 
	C846.507141,119.904961 847.080444,121.498512 847.068298,124.949898 
	C846.965088,154.251633 847.015686,183.553909 846.556763,213.387283 
	C813.202087,213.918549 780.310852,213.918549 747.375610,213.918549 
	C747.375610,219.767853 747.375610,225.121506 747.375610,230.760178 
	C757.723938,230.760178 767.686584,230.735977 777.649170,230.765060 
	C800.766418,230.832520 823.883728,230.925705 847.002930,231.311249 
	C847.008789,232.017685 847.012573,232.421371 846.552124,232.900452 
	C812.365051,232.975876 778.642212,232.975876 745.122314,232.975876 
	C743.744202,238.378326 747.188599,237.409988 749.671143,237.413956 
	C782.124817,237.465942 814.578491,237.484528 847.047791,237.810150 
	C847.046265,238.706223 847.029114,239.303650 847.011902,239.901077 
z"/>
<path fill="#EBEBEB" opacity="1.000000" stroke="none" 
	d="
M194.997971,270.988312 
	C194.995941,222.703064 195.056046,174.417603 194.892059,126.132904 
	C194.876343,121.503677 195.840836,119.858986 200.833252,119.899376 
	C230.301971,120.137772 259.773560,120.020859 289.705322,120.399971 
	C285.872925,123.031281 285.842102,126.921104 285.945129,131.071259 
	C286.095062,137.109436 283.914734,139.906570 278.237579,141.888458 
	C270.960083,144.429016 265.139587,148.932816 260.331909,154.934021 
	C251.402405,166.080246 252.455475,179.213867 252.762894,192.194641 
	C252.776184,192.756363 254.340668,193.877396 254.607498,193.725769 
	C255.422394,193.262787 256.433380,192.350189 256.511169,191.531097 
	C256.762299,188.887741 256.269348,186.134384 256.792053,183.572128 
	C257.066864,182.225067 258.859589,181.187683 259.966919,180.010468 
	C261.011963,181.223770 262.777069,182.338654 262.959015,183.669907 
	C263.399475,186.893127 263.102051,190.217209 263.102051,193.493622 
	C265.438385,193.493622 267.144562,193.493622 269.110016,193.493622 
	C269.110016,190.292862 268.721161,187.396332 269.251770,184.679367 
	C269.585175,182.972076 271.298035,181.534180 272.392029,179.975418 
	C273.550903,181.470047 275.415222,182.836685 275.714691,184.487244 
	C276.257690,187.480087 275.868622,190.642044 275.868622,193.986557 
	C278.276733,193.812210 279.867584,193.697037 281.829346,193.554993 
	C281.829346,190.247742 281.491669,187.219650 281.964996,184.324127 
	C282.219910,182.764847 283.864594,181.432755 284.882233,179.998169 
	C286.030457,181.466919 287.882172,182.809128 288.174072,184.431915 
	C288.710052,187.411392 288.326904,190.556229 288.326904,193.964371 
	C290.770416,193.799545 292.336700,193.693878 294.178528,193.569641 
	C294.178528,189.977951 293.849640,186.776260 294.328583,183.700363 
	C294.542053,182.329056 296.381195,181.210876 297.482513,179.977814 
	C298.690277,181.252930 300.682312,182.385010 300.946228,183.832230 
	C301.536194,187.067505 301.264862,190.459839 301.063202,193.951111 
	C300.524658,194.685486 300.267303,195.256958 299.546021,195.903015 
	C283.687653,195.977600 268.293304,195.977600 252.962067,195.977600 
	C252.962067,208.823334 252.962067,221.035904 252.962067,233.963074 
	C269.190033,233.963074 285.092194,233.963074 301.000031,234.264282 
	C301.011658,234.966995 301.017639,235.368530 300.561523,235.861176 
	C284.372070,235.952316 268.644745,235.952316 252.959473,235.952316 
	C252.959473,241.278793 252.959473,246.011429 252.959473,251.299255 
	C269.196442,251.299255 285.111816,251.299255 301.034393,251.577789 
	C301.038391,252.413208 301.035187,252.970078 300.572693,253.631653 
	C298.281036,253.750244 296.448700,253.776108 294.616364,253.776184 
	C270.293396,253.777237 245.970383,253.738983 221.647552,253.790985 
	C212.226715,253.811127 205.866028,260.238647 206.629318,268.998962 
	C208.592621,268.998962 210.579361,268.995911 212.566116,268.999420 
	C242.049881,269.051575 271.533661,269.104584 301.009460,269.468506 
	C300.999542,270.194672 300.997620,270.609650 300.534668,271.116089 
	C279.153137,271.217377 258.232635,271.259857 237.312241,271.225616 
	C223.207397,271.202545 209.102722,271.071198 194.997971,270.988312 
z"/>
<path fill="#EDEDED" opacity="1.000000" stroke="none" 
	d="
M164.012665,195.374329 
	C128.982346,195.879990 93.945511,195.927811 58.444176,195.899078 
	C57.984447,172.527496 58.094551,149.231628 57.903847,125.938225 
	C57.866341,121.357147 59.235901,119.894989 63.871658,119.920448 
	C95.318993,120.093193 126.768250,120.099869 158.215439,119.915367 
	C162.976501,119.887436 164.118057,121.573189 164.083374,126.030441 
	C163.904709,148.991272 164.003922,171.954254 164.012665,195.374329 
z"/>
<path fill="#ECECEC" opacity="1.000000" stroke="none" 
	d="
M711.034912,187.479446 
	C699.421021,187.771194 687.814514,187.771194 675.674316,187.771194 
	C675.674316,201.106079 675.674316,213.682770 675.674316,226.562073 
	C661.383362,226.562073 647.626831,226.562073 633.265991,226.562073 
	C633.265991,214.047592 633.265991,201.341003 633.265991,187.984558 
	C623.417419,187.984558 614.157410,187.984558 604.436035,187.887085 
	C603.978882,187.389893 603.983154,186.990158 604.453857,186.189987 
	C614.194641,185.789536 623.469055,185.789536 633.020996,185.789536 
	C633.020996,182.970245 633.035950,180.818100 633.018188,178.666214 
	C632.964905,172.216919 631.869568,171.143906 625.458862,171.089844 
	C618.633362,171.032272 611.808228,170.935104 604.982910,170.855225 
	C604.986206,155.698471 605.108704,140.540176 604.911926,125.386017 
	C604.860535,121.425720 605.716919,119.891235 610.079956,119.915863 
	C642.058044,120.096413 674.037964,120.078354 706.016418,119.929688 
	C709.960876,119.911346 711.142090,121.015068 711.085449,124.983887 
	C710.871643,139.970963 711.007385,154.963028 710.552856,170.511719 
	C700.614014,171.080444 691.134338,171.123428 681.655029,171.082550 
	C678.461426,171.068771 675.910950,171.927322 675.659363,175.536804 
	C675.432007,178.798798 675.611389,182.089127 675.611389,186.021042 
	C687.798035,186.021042 699.400452,186.021042 711.002930,186.021042 
	C711.016052,186.409927 711.029175,186.798813 711.034912,187.479446 
z"/>
<path fill="#3E3E3E" opacity="1.000000" stroke="none" 
	d="
M496.925110,119.590286 
	C499.166138,136.266479 501.203308,152.550522 503.429321,168.808701 
	C504.305939,175.211395 506.048889,181.520172 506.571075,187.938934 
	C506.995667,193.157684 509.132385,194.957901 514.054871,194.145401 
	C514.826233,194.018097 515.651062,194.214752 516.717957,194.277237 
	C516.717957,197.891098 516.717957,201.279617 516.717957,205.089539 
	C495.698639,205.089539 474.817932,205.089539 453.470703,205.044250 
	C453.004211,201.547028 453.004211,198.095123 453.004211,194.234299 
	C456.067993,194.234299 458.823151,194.234299 462.306580,194.234299 
	C464.589783,179.585632 466.828094,165.224899 469.271667,150.116547 
	C470.599182,139.571655 471.721405,129.774384 472.843628,119.977104 
	C474.749420,99.470634 476.655212,78.964172 478.582855,58.222214 
	C482.639893,58.222214 486.925812,58.222214 491.353607,58.222214 
	C493.168610,78.550873 494.982697,98.869331 496.925110,119.590286 
M489.024780,183.450073 
	C488.543182,179.514160 488.061584,175.578262 487.550903,171.404831 
	C485.741852,171.404831 484.175507,171.404831 482.239014,171.404831 
	C481.444672,178.952133 480.672424,186.289719 479.890472,193.719360 
	C483.622253,193.719360 486.660583,193.719360 489.894775,193.719360 
	C489.595306,190.312866 489.333374,187.333435 489.024780,183.450073 
z"/>
<path fill="#3F3F3F" opacity="1.000000" stroke="none" 
	d="
M301.344391,193.788193 
	C301.264862,190.459839 301.536194,187.067505 300.946228,183.832230 
	C300.682312,182.385010 298.690277,181.252930 297.482513,179.977814 
	C296.381195,181.210876 294.542053,182.329056 294.328583,183.700363 
	C293.849640,186.776260 294.178528,189.977951 294.178528,193.569641 
	C292.336700,193.693878 290.770416,193.799545 288.326904,193.964371 
	C288.326904,190.556229 288.710052,187.411392 288.174072,184.431915 
	C287.882172,182.809128 286.030457,181.466919 284.882233,179.998169 
	C283.864594,181.432755 282.219910,182.764847 281.964996,184.324127 
	C281.491669,187.219650 281.829346,190.247742 281.829346,193.554993 
	C279.867584,193.697037 278.276733,193.812210 275.868622,193.986557 
	C275.868622,190.642044 276.257690,187.480087 275.714691,184.487244 
	C275.415222,182.836685 273.550903,181.470047 272.392029,179.975418 
	C271.298035,181.534180 269.585175,182.972076 269.251770,184.679367 
	C268.721161,187.396332 269.110016,190.292862 269.110016,193.493622 
	C267.144562,193.493622 265.438385,193.493622 263.102051,193.493622 
	C263.102051,190.217209 263.399475,186.893127 262.959015,183.669907 
	C262.777069,182.338654 261.011963,181.223770 259.966919,180.010468 
	C258.859589,181.187683 257.066864,182.225067 256.792053,183.572128 
	C256.269348,186.134384 256.762299,188.887741 256.511169,191.531097 
	C256.433380,192.350189 255.422394,193.262787 254.607498,193.725769 
	C254.340668,193.877396 252.776184,192.756363 252.762894,192.194641 
	C252.455475,179.213867 251.402405,166.080246 260.331909,154.934021 
	C265.139587,148.932816 270.960083,144.429016 278.237579,141.888458 
	C283.914734,139.906570 286.095062,137.109436 285.945129,131.071259 
	C285.842102,126.921104 285.872925,123.031281 290.186890,120.408432 
	C289.915161,117.900841 289.623016,115.761215 289.204834,112.698814 
	C289.280731,112.615776 290.310394,111.489006 291.298035,110.408234 
	C292.224396,111.431358 293.218628,112.529480 293.582825,112.931717 
	C293.039612,115.283844 292.589844,117.231239 292.202209,119.919373 
	C295.888855,122.561928 297.288635,125.527260 296.747589,129.577621 
	C296.171997,133.886688 298.154266,137.341217 300.751160,140.532852 
	C315.483032,145.072968 325.367310,154.360321 329.393677,169.876236 
	C329.740417,177.781052 329.889008,185.388046 329.508362,193.424255 
	C328.007996,192.971786 326.395050,192.213104 326.197601,191.183121 
	C325.768280,188.943069 326.432343,186.480652 325.932556,184.271286 
	C325.578491,182.706024 324.050049,181.406418 323.045807,179.988235 
	C321.845337,181.419662 319.904419,182.712311 319.604492,184.312531 
	C319.046448,187.289886 319.444397,190.446426 319.444397,193.515884 
	C317.137207,193.515884 315.582825,193.515884 313.693115,193.515884 
	C313.693115,190.215286 314.104156,187.164581 313.532837,184.310516 
	C313.210419,182.699844 311.270935,181.412872 310.059845,179.980103 
	C308.964905,181.359207 307.170929,182.623871 306.922485,184.141556 
	C306.425507,187.176895 306.775024,190.350830 306.775024,193.788193 
	C304.605652,193.788193 302.975037,193.788193 301.344391,193.788193 
M290.006287,128.694489 
	C289.728516,130.447800 289.266144,132.201935 289.273804,133.953995 
	C289.276489,134.561600 290.355682,135.440811 291.108063,135.682297 
	C291.720795,135.878998 292.826111,135.536682 293.284424,135.038818 
	C294.893921,133.290344 293.335999,129.429642 290.006287,128.694489 
z"/>
<path fill="#3F3F3F" opacity="1.000000" stroke="none" 
	d="
M452.900696,208.442261 
	C474.042938,207.979797 495.178497,207.979797 516.340881,207.979797 
	C518.160461,216.041916 517.555298,218.344604 512.496582,219.488403 
	C515.139282,229.722870 517.692566,239.968216 520.553711,250.126816 
	C520.832886,251.117874 522.966125,252.059677 524.315369,252.182434 
	C527.580078,252.479492 530.890076,252.278885 534.466187,252.278885 
	C534.466187,256.390411 534.466187,259.949097 534.466187,264.033844 
	C512.482544,264.033844 490.696716,264.033844 467.983887,264.034119 
	C457.043732,264.081909 447.030640,264.129425 437.017517,264.176941 
	C434.183075,261.524719 434.304810,254.573792 437.609589,252.161865 
	C448.722137,252.848602 448.765442,252.860016 451.471985,242.591873 
	C453.459656,235.051132 455.314941,227.475494 457.339203,219.481140 
	C455.775360,219.112274 454.472626,218.804993 452.894012,218.432632 
	C452.894012,215.188660 452.894012,212.046692 452.900696,208.442261 
M497.857025,233.678345 
	C496.886688,228.838943 495.916321,223.999557 494.937378,219.117157 
	C488.060547,219.117157 481.621613,219.117157 474.826752,219.117157 
	C472.759003,230.081635 470.716797,240.910629 468.632629,251.962128 
	C479.839661,251.962128 490.385590,251.962128 500.887329,251.962128 
	C500.974243,251.305023 501.106323,250.959351 501.048096,250.649429 
	C500.037598,245.272156 499.003693,239.899277 497.857025,233.678345 
z"/>
<path fill="#3F3F3F" opacity="1.000000" stroke="none" 
	d="
M847.000977,231.008469 
	C823.883728,230.925705 800.766418,230.832520 777.649170,230.765060 
	C767.686584,230.735977 757.723938,230.760178 747.375610,230.760178 
	C747.375610,225.121506 747.375610,219.767853 747.375610,213.918549 
	C780.310852,213.918549 813.202087,213.918549 846.557739,213.841125 
	C857.031555,213.813278 867.040894,213.862839 877.511475,213.834549 
	C878.818848,214.106140 880.399292,214.452103 880.401001,214.805557 
	C880.425415,219.958160 880.252563,225.112320 880.046509,230.262909 
	C880.039124,230.447556 879.207031,230.599197 877.920227,230.781265 
	C867.054382,230.867020 857.027710,230.937744 847.000977,231.008469 
z"/>
<path fill="#5A5A59" opacity="1.000000" stroke="none" 
	d="
M194.560608,271.084473 
	C209.102722,271.071198 223.207397,271.202545 237.312241,271.225616 
	C258.232635,271.259857 279.153137,271.217377 300.996521,271.205597 
	C311.613831,271.141541 321.308258,271.079407 331.002686,271.017303 
	C351.321869,271.089508 371.640991,271.189880 391.960236,271.203491 
	C395.006012,271.205536 397.467499,271.333862 395.739594,275.863495 
	C374.497498,275.863495 353.208984,275.863495 330.996674,275.858826 
	C320.383301,275.912445 310.693756,275.970764 300.541504,275.945740 
	C283.141907,275.853485 266.204956,275.811035 249.268127,275.844788 
	C231.175400,275.880829 213.082809,275.988739 194.990158,276.065277 
	C192.847580,275.977386 190.661667,276.109924 188.582245,275.700897 
	C187.658279,275.519135 186.949249,274.244690 186.142654,273.466217 
	C186.984497,272.727966 187.734283,271.545624 188.688171,271.347900 
	C190.436295,270.985504 192.304886,271.204224 194.560608,271.084473 
z"/>
<path fill="#444444" opacity="1.000000" stroke="none" 
	d="
M604.524353,170.953644 
	C611.808228,170.935104 618.633362,171.032272 625.458862,171.089844 
	C631.869568,171.143906 632.964905,172.216919 633.018188,178.666214 
	C633.035950,180.818100 633.020996,182.970245 633.020996,185.789536 
	C623.469055,185.789536 614.194641,185.789536 604.460693,185.890167 
	C595.933044,185.990784 587.864807,185.990784 579.126038,185.990784 
	C579.126038,182.653381 579.104919,179.908508 579.131042,177.164078 
	C579.169067,173.163269 581.041016,171.051743 585.213867,171.087357 
	C591.497314,171.140961 597.781738,171.070053 604.524353,170.953644 
z"/>
<path fill="#444444" opacity="1.000000" stroke="none" 
	d="
M711.460938,185.916565 
	C699.400452,186.021042 687.798035,186.021042 675.611389,186.021042 
	C675.611389,182.089127 675.432007,178.798798 675.659363,175.536804 
	C675.910950,171.927322 678.461426,171.068771 681.655029,171.082550 
	C691.134338,171.123428 700.614014,171.080444 710.554443,170.972534 
	C714.983948,170.950027 718.955750,171.159256 722.920288,171.064758 
	C727.369873,170.958694 729.320435,172.953781 729.090698,177.369705 
	C728.954773,179.982101 729.065796,182.607346 729.065796,185.812088 
	C723.085388,185.812088 717.502197,185.812088 711.460938,185.916565 
z"/>
<path fill="#444444" opacity="1.000000" stroke="none" 
	d="
M484.175659,6.350403 
	C485.157654,7.388100 486.272491,8.612503 486.309052,9.868316 
	C486.492218,16.156588 486.392914,22.453089 486.392914,28.915140 
	C487.956085,29.314453 489.438690,29.314873 490.389313,30.026196 
	C491.756622,31.049335 493.988098,33.112625 493.688904,33.828686 
	C490.666016,41.063599 492.214813,48.166981 494.888763,55.569794 
	C487.895142,55.569794 482.129242,55.569794 475.330719,55.569794 
	C475.947540,53.160767 476.733551,50.976707 477.028473,48.728237 
	C477.453094,45.490826 478.288757,42.030933 477.590332,38.976688 
	C475.806458,31.175686 475.517853,31.221357 483.811279,28.625998 
	C483.811279,21.434177 483.811279,13.992885 484.175659,6.350403 
M486.272034,48.619072 
	C486.544495,46.770000 487.139801,44.882931 486.928894,43.090736 
	C486.845703,42.383797 484.964996,41.888397 483.902771,41.296677 
	C483.525299,42.795750 482.704407,44.360470 482.913483,45.772717 
	C483.075073,46.864235 484.527191,47.764694 486.272034,48.619072 
z"/>
<path fill="#EDEDED" opacity="1.000000" stroke="none" 
	d="
M194.981689,276.336975 
	C213.082809,275.988739 231.175400,275.880829 249.268127,275.844788 
	C266.204956,275.811035 283.141907,275.853485 300.544617,276.228333 
	C301.014374,276.971008 301.018280,277.347748 301.022217,277.724487 
	C265.979095,277.775238 230.935959,277.826019 195.429779,277.786163 
	C194.968887,277.333282 194.971054,276.970978 194.981689,276.336975 
z"/>
<path fill="#E9E9E9" opacity="1.000000" stroke="none" 
	d="
M472.421997,119.985039 
	C471.721405,129.774384 470.599182,139.571655 469.242767,149.685608 
	C468.673218,147.119583 468.123444,144.242523 468.047638,141.353027 
	C467.895203,135.544037 468.147369,129.723083 467.941711,123.917366 
	C467.830872,120.788948 469.063202,119.664841 472.421997,119.985039 
z"/>
<path fill="#E9E9E9" opacity="1.000000" stroke="none" 
	d="
M300.820282,140.031799 
	C298.154266,137.341217 296.171997,133.886688 296.747589,129.577621 
	C297.288635,125.527260 295.888855,122.561928 292.277954,120.309250 
	C294.915924,119.958382 297.540192,119.958382 300.889404,119.958382 
	C300.889404,126.779999 300.889404,133.155365 300.820282,140.031799 
z"/>
<path fill="#ECECEC" opacity="1.000000" stroke="none" 
	d="
M578.742249,351.097839 
	C578.826660,351.333527 578.705566,351.669189 578.291077,351.962433 
	C578.097107,351.619415 578.276855,351.378662 578.742249,351.097839 
z"/>
<path fill="#EDEDED" opacity="1.000000" stroke="none" 
	d="
M729.926880,351.690460 
	C729.715332,351.763885 729.427429,351.648346 729.181519,351.265930 
	C729.490234,351.094604 729.699158,351.262054 729.926880,351.690460 
z"/>
<path fill="#ECECEC" opacity="1.000000" stroke="none" 
	d="
M127.891708,248.196594 
	C130.172241,248.196869 131.967072,248.196869 134.099747,248.196869 
	C134.099747,282.919159 134.099747,317.153046 134.099747,351.754547 
	C108.758705,351.754547 83.353828,351.754547 57.553658,351.754547 
	C57.553658,317.505890 57.553658,283.159515 57.553658,248.196320 
	C80.887054,248.196320 104.146530,248.196320 127.891708,248.196594 
z"/>
<path fill="#ECECEB" opacity="1.000000" stroke="none" 
	d="
M806.006226,274.721069 
	C818.952454,269.877899 832.126465,278.250092 835.356995,288.768127 
	C835.992065,290.836090 837.516968,292.964996 834.651794,294.872833 
	C834.032166,295.285370 833.998596,298.156372 834.538330,298.477509 
	C838.207825,300.660583 836.733337,304.079590 836.758728,306.964294 
	C836.888672,321.753448 836.818848,336.544342 836.818848,351.726135 
	C821.481384,351.726135 806.464722,351.726135 790.865784,351.726135 
	C790.865784,343.106689 790.865784,334.506958 790.865784,325.907196 
	C790.865845,318.916565 790.720764,311.921051 790.956299,304.938354 
	C791.024902,302.904572 792.225098,300.920502 792.817566,298.887695 
	C793.087036,297.963135 793.589417,296.733032 793.222778,296.053253 
	C788.723083,287.710602 794.922913,283.167358 799.622864,278.278870 
	C801.156311,276.683899 803.603516,275.967499 806.006226,274.721069 
z"/>
<path fill="#ECECEC" opacity="1.000000" stroke="none" 
	d="
M467.919983,307.729889 
	C491.280334,297.522583 521.549438,310.848938 530.636047,335.563721 
	C532.493835,340.616577 533.348083,346.038361 534.863892,352.083679 
	C512.113159,352.083679 490.509216,352.083679 468.445587,351.520691 
	C467.963928,336.548401 467.941986,322.139160 467.919983,307.729889 
z"/>
<path fill="#FDFDFD" opacity="1.000000" stroke="none" 
	d="
M467.554565,307.804077 
	C467.941986,322.139160 467.963928,336.548401 467.985779,351.418213 
	C457.963654,351.945435 447.941650,352.012085 437.379303,351.788940 
	C436.680878,351.258240 436.465393,351.091644 436.192505,350.999298 
	C436.021790,332.721924 449.069153,314.570984 467.554565,307.804077 
z"/>
<path fill="#F4F4F4" opacity="1.000000" stroke="none" 
	d="
M714.910156,227.012299 
	C712.161926,227.013260 709.887207,227.013260 707.178040,227.013260 
	C707.178040,218.702942 707.012573,210.955566 707.255859,203.221054 
	C707.359436,199.929352 709.310791,197.481842 712.971008,197.664062 
	C716.616882,197.845581 718.071716,200.371155 718.102600,203.743210 
	C718.164673,210.534225 718.234619,217.330002 718.002686,224.113602 
	C717.968689,225.108200 716.297424,226.046829 714.910156,227.012299 
z"/>
<path fill="#E9E9E9" opacity="1.000000" stroke="none" 
	d="
M611.184204,201.746490 
	C612.654419,198.364624 615.166138,196.494629 618.001221,198.068283 
	C619.860352,199.100174 621.600464,202.011765 621.734253,204.183777 
	C622.189697,211.574860 621.908508,219.011383 621.908508,226.710510 
	C618.213745,226.710510 614.965881,226.710510 611.067139,226.710510 
	C611.067139,218.597443 611.067139,210.382782 611.184204,201.746490 
z"/>
<path fill="#FDFDFD" opacity="1.000000" stroke="none" 
	d="
M598.408081,198.264633 
	C599.543030,200.216827 600.903625,201.947220 600.961914,203.720398 
	C601.208008,211.207458 601.066101,218.707275 601.066101,226.593689 
	C597.708313,226.593689 594.498596,226.593689 590.759888,226.593689 
	C590.759888,218.400375 590.432312,210.133408 590.902527,201.912094 
	C591.127014,197.986786 594.389099,197.031342 598.408081,198.264633 
z"/>
<path fill="#ECECEC" opacity="1.000000" stroke="none" 
	d="
M691.074890,226.985992 
	C687.900940,227.389435 686.777222,226.468658 686.870239,223.507721 
	C687.078613,216.875824 686.971741,210.232895 686.931885,203.594818 
	C686.910645,200.061462 688.313538,197.706238 692.070557,197.710587 
	C695.804565,197.714935 697.260803,200.031738 697.242798,203.580704 
	C697.204102,211.184097 697.231018,218.787827 697.231018,226.985947 
	C695.078796,226.985947 693.312317,226.985947 691.074890,226.985992 
z"/>
<path fill="#FFFFFF" opacity="1.000000" stroke="none" 
	d="
M847.472839,239.987701 
	C847.029114,239.303650 847.046265,238.706223 847.513184,237.797623 
	C857.631226,237.495850 867.299500,237.505249 876.967712,237.514648 
	C876.980835,238.119095 876.993896,238.723557 876.998352,239.630524 
	C867.304382,239.980133 857.619080,240.027222 847.472839,239.987701 
z"/>
<path fill="#D9D9D9" opacity="1.000000" stroke="none" 
	d="
M658.966187,235.445862 
	C660.279663,235.341461 662.604126,235.645844 662.621033,236.047348 
	C662.857300,241.660522 662.852783,247.289185 662.686157,252.907516 
	C662.664246,253.645859 661.419678,254.347946 660.741394,255.066833 
	C660.129822,254.301025 659.009521,253.549103 658.988159,252.767227 
	C658.835022,247.148178 658.905029,241.523026 658.966187,235.445862 
z"/>
<path fill="#D9D9D9" opacity="1.000000" stroke="none" 
	d="
M652.339478,240.191315 
	C652.342468,238.724945 652.086365,237.630569 652.416626,236.758163 
	C652.797791,235.751587 653.696045,234.940750 654.369751,234.044907 
	C654.941895,235.026993 655.981873,235.996338 656.009033,236.993271 
	C656.166687,242.783768 656.086121,248.580750 656.086121,254.375549 
	C655.628235,254.659042 655.170410,254.942535 654.712524,255.226028 
	C653.923584,254.190247 652.535034,253.199020 652.454102,252.110580 
	C652.171692,248.312347 652.341492,244.480515 652.339478,240.191315 
z"/>
<path fill="#D9D9D9" opacity="1.000000" stroke="none" 
	d="
M675.758484,245.956665 
	C675.755066,248.421600 676.030762,250.458481 675.645142,252.361343 
	C675.409729,253.523453 674.157471,254.479538 673.361938,255.528168 
	C672.961426,255.251511 672.560974,254.974869 672.160461,254.698227 
	C672.160461,247.983597 672.160461,241.268982 672.160461,234.554352 
	C672.504517,234.244034 672.848511,233.933716 673.192566,233.623398 
	C674.044128,234.602417 675.506042,235.510162 675.630310,236.574127 
	C675.972717,239.505142 675.754883,242.501556 675.758484,245.956665 
z"/>
<path fill="#D9D9D9" opacity="1.000000" stroke="none" 
	d="
M643.049561,249.844666 
	C643.049622,251.783676 643.049622,253.242340 643.049622,254.701004 
	C642.575012,254.970886 642.100342,255.240768 641.625732,255.510651 
	C640.821533,254.479523 639.371033,253.477890 639.322388,252.412277 
	C639.081543,247.132095 639.112793,241.831390 639.307495,236.547485 
	C639.339417,235.682220 640.666016,234.864670 641.394287,234.025085 
	C641.945618,234.839050 642.942139,235.636246 642.973511,236.469772 
	C643.135132,240.762817 643.049072,245.065186 643.049561,249.844666 
z"/>
<path fill="#D9D9D9" opacity="1.000000" stroke="none" 
	d="
M632.946777,244.992523 
	C632.946777,241.220840 632.946777,237.937592 632.946777,234.654343 
	C633.402527,234.367752 633.858337,234.081146 634.314087,233.794556 
	C635.135254,234.842621 636.612976,235.858795 636.665710,236.944168 
	C636.913696,242.051041 636.902405,247.183060 636.663574,252.291138 
	C636.611389,253.405975 635.247742,254.459488 634.488159,255.541245 
	C633.974365,255.292603 633.460571,255.043945 632.946777,254.795303 
	C632.946777,251.690521 632.946777,248.585739 632.946777,244.992523 
z"/>
<path fill="#ECECEB" opacity="1.000000" stroke="none" 
	d="
M668.945312,253.652939 
	C667.832764,253.742584 665.849121,253.398422 665.833069,252.978973 
	C665.622925,247.488037 665.618591,241.984482 665.768677,236.489731 
	C665.790710,235.683472 666.878723,234.906326 667.473572,234.115723 
	C667.982422,234.972809 668.911072,235.819885 668.931763,236.688614 
	C669.062683,242.184448 668.992554,247.685089 668.945312,253.652939 
z"/>
<path fill="#E9E9E9" opacity="1.000000" stroke="none" 
	d="
M649.348267,248.905334 
	C648.840149,251.256485 648.332397,253.121704 647.824646,254.986938 
	C647.216858,253.056320 646.235474,251.154831 646.082214,249.188766 
	C645.799255,245.558792 645.863159,241.882935 646.072754,238.242920 
	C646.153259,236.844849 647.027100,235.492447 647.539429,234.119232 
	C648.141602,235.565887 649.145325,236.980453 649.263977,238.465744 
	C649.527527,241.764847 649.347717,245.099350 649.348267,248.905334 
z"/>
<path fill="#FDFDFD" opacity="1.000000" stroke="none" 
	d="
M437.013824,264.470154 
	C447.030640,264.129425 457.043732,264.081909 467.519287,264.107697 
	C467.984558,264.569427 467.987427,264.957825 467.990814,265.637573 
	C457.969879,265.995361 447.948425,266.061798 437.467346,266.032196 
	C437.008514,265.545227 437.009338,265.154297 437.013824,264.470154 
z"/>
<path fill="#FDFDFD" opacity="1.000000" stroke="none" 
	d="
M301.482849,277.807739 
	C301.018280,277.347748 301.014374,276.971008 301.007324,276.311646 
	C310.693756,275.970764 320.383301,275.912445 330.534088,275.943024 
	C330.985992,276.407410 330.976654,276.782898 330.971619,277.440125 
	C321.298431,277.778229 311.620941,277.834595 301.482849,277.807739 
z"/>
<path fill="#F4F4F4" opacity="1.000000" stroke="none" 
	d="
M438.589172,285.024506 
	C437.825104,283.066284 437.412323,281.004669 437.002411,278.519836 
	C438.301788,278.096680 439.598267,278.096680 441.806793,278.096680 
	C440.743652,280.627899 439.842041,282.774475 438.589172,285.024506 
z"/>
<path fill="#ECECEC" opacity="1.000000" stroke="none" 
	d="
M436.148499,351.270508 
	C436.465393,351.091644 436.680878,351.258240 436.919769,351.690002 
	C436.701874,351.767853 436.403168,351.654755 436.148499,351.270508 
z"/>
<path fill="#3D3D3C" opacity="1.000000" stroke="none" 
	d="
M877.408875,237.468567 
	C867.299500,237.505249 857.631226,237.495850 847.497559,237.498978 
	C814.578491,237.484528 782.124817,237.465942 749.671143,237.413956 
	C747.188599,237.409988 743.744202,238.378326 745.122314,232.975876 
	C778.642212,232.975876 812.365051,232.975876 847.014648,232.974121 
	C857.954346,232.927307 867.967224,232.882233 877.980103,232.837173 
	C879.423828,232.945679 880.867615,233.054184 882.433716,233.171890 
	C884.286743,238.328033 880.491272,237.260361 877.408875,237.468567 
z"/>
<path fill="#FDFDFD" opacity="1.000000" stroke="none" 
	d="
M877.987427,232.530243 
	C867.967224,232.882233 857.954346,232.927307 847.478943,232.898712 
	C847.012573,232.421371 847.008789,232.017685 847.002930,231.311249 
	C857.027710,230.937744 867.054382,230.867020 877.540894,230.895752 
	C877.998657,231.404572 877.996643,231.813934 877.987427,232.530243 
z"/>
<path fill="#3E3E3E" opacity="1.000000" stroke="none" 
	d="
M300.994385,233.963074 
	C285.092194,233.963074 269.190033,233.963074 252.962067,233.963074 
	C252.962067,221.035904 252.962067,208.823334 252.962067,195.977600 
	C268.293304,195.977600 283.687653,195.977600 300.008667,195.978973 
	C310.602570,195.996933 320.269836,196.013504 329.937134,196.030060 
	C329.972656,208.288513 330.008179,220.546967 329.517578,233.259354 
	C319.659088,233.796539 310.326721,233.879807 300.994385,233.963074 
z"/>
<path fill="#3D3D3C" opacity="1.000000" stroke="none" 
	d="
M301.017426,269.157379 
	C271.533661,269.104584 242.049881,269.051575 212.566116,268.999420 
	C210.579361,268.995911 208.592621,268.998962 206.629318,268.998962 
	C205.866028,260.238647 212.226715,253.811127 221.647552,253.790985 
	C245.970383,253.738983 270.293396,253.777237 294.616364,253.776184 
	C296.448700,253.776108 298.281036,253.750244 301.029358,253.732208 
	C311.620026,253.657349 321.294708,253.586609 330.969391,253.515884 
	C340.778076,253.597137 350.586700,253.685593 360.395447,253.757599 
	C370.061462,253.828552 375.461639,258.686249 376.598572,269.017212 
	C361.656952,269.017212 346.785309,269.017212 330.985779,269.018219 
	C320.377777,269.065277 310.697601,269.111328 301.017426,269.157379 
z"/>
<path fill="#3D3D3D" opacity="1.000000" stroke="none" 
	d="
M301.027191,251.299255 
	C285.111816,251.299255 269.196442,251.299255 252.959473,251.299255 
	C252.959473,246.011429 252.959473,241.278793 252.959473,235.952316 
	C268.644745,235.952316 284.372070,235.952316 301.021790,235.946259 
	C310.965729,235.888229 319.987305,235.836258 329.008881,235.784286 
	C329.383759,240.552658 329.758636,245.321045 329.616577,250.590607 
	C319.742157,251.160950 310.384674,251.230103 301.027191,251.299255 
z"/>
<path fill="#F4F4F4" opacity="1.000000" stroke="none" 
	d="
M330.177856,195.867065 
	C320.269836,196.013504 310.602570,195.996933 300.472626,195.904404 
	C300.267303,195.256958 300.524658,194.685486 301.063202,193.951111 
	C302.975037,193.788193 304.605652,193.788193 306.775024,193.788193 
	C306.775024,190.350830 306.425507,187.176895 306.922485,184.141556 
	C307.170929,182.623871 308.964905,181.359207 310.059845,179.980103 
	C311.270935,181.412872 313.210419,182.699844 313.532837,184.310516 
	C314.104156,187.164581 313.693115,190.215286 313.693115,193.515884 
	C315.582825,193.515884 317.137207,193.515884 319.444397,193.515884 
	C319.444397,190.446426 319.046448,187.289886 319.604492,184.312531 
	C319.904419,182.712311 321.845337,181.419662 323.045807,179.988235 
	C324.050049,181.406418 325.578491,182.706024 325.932556,184.271286 
	C326.432343,186.480652 325.768280,188.943069 326.197601,191.183121 
	C326.395050,192.213104 328.007996,192.971786 329.392731,193.873901 
	C330.010468,194.497574 330.214508,195.100815 330.177856,195.867065 
z"/>
<path fill="#FDFDFD" opacity="1.000000" stroke="none" 
	d="
M301.034393,251.577789 
	C310.384674,251.230103 319.742157,251.160950 329.569763,251.055588 
	C330.341858,251.660843 330.643829,252.302307 330.957581,253.229828 
	C321.294708,253.586609 311.620026,253.657349 301.488647,253.627502 
	C301.035187,252.970078 301.038391,252.413208 301.034393,251.577789 
z"/>
<path fill="#FDFDFD" opacity="1.000000" stroke="none" 
	d="
M301.009460,269.468506 
	C310.697601,269.111328 320.377777,269.065277 330.520935,269.089417 
	C330.990173,269.572418 330.996429,269.985229 331.002686,270.707642 
	C321.308258,271.079407 311.613831,271.141541 301.457550,271.114136 
	C300.997620,270.609650 300.999542,270.194672 301.009460,269.468506 
z"/>
<path fill="#FDFDFD" opacity="1.000000" stroke="none" 
	d="
M329.137939,235.527557 
	C319.987305,235.836258 310.965729,235.888229 301.483887,235.855133 
	C301.017639,235.368530 301.011658,234.966995 301.000031,234.264282 
	C310.326721,233.879807 319.659088,233.796539 329.454529,233.705627 
	C329.700775,234.222244 329.483917,234.746536 329.137939,235.527557 
z"/>
<path fill="#E9E9E9" opacity="1.000000" stroke="none" 
	d="
M489.048096,183.902039 
	C489.333374,187.333435 489.595306,190.312866 489.894775,193.719360 
	C486.660583,193.719360 483.622253,193.719360 479.890472,193.719360 
	C480.672424,186.289719 481.444672,178.952133 482.239014,171.404831 
	C484.175507,171.404831 485.741852,171.404831 487.550903,171.404831 
	C488.061584,175.578262 488.543182,179.514160 489.048096,183.902039 
z"/>
<path fill="#D9D9D9" opacity="1.000000" stroke="none" 
	d="
M290.320374,128.449341 
	C293.335999,129.429642 294.893921,133.290344 293.284424,135.038818 
	C292.826111,135.536682 291.720795,135.878998 291.108063,135.682297 
	C290.355682,135.440811 289.276489,134.561600 289.273804,133.953995 
	C289.266144,132.201935 289.728516,130.447800 290.320374,128.449341 
z"/>
<path fill="#ECECEB" opacity="1.000000" stroke="none" 
	d="
M497.915985,234.101898 
	C499.003693,239.899277 500.037598,245.272156 501.048096,250.649429 
	C501.106323,250.959351 500.974243,251.305023 500.887329,251.962128 
	C490.385590,251.962128 479.839661,251.962128 468.632629,251.962128 
	C470.716797,240.910629 472.759003,230.081635 474.826752,219.117157 
	C481.621613,219.117157 488.060547,219.117157 494.937378,219.117157 
	C495.916321,223.999557 496.886688,228.838943 497.915985,234.101898 
z"/>
<path fill="#EBEBEB" opacity="1.000000" stroke="none" 
	d="
M485.838806,48.684582 
	C484.527191,47.764694 483.075073,46.864235 482.913483,45.772717 
	C482.704407,44.360470 483.525299,42.795750 483.902771,41.296677 
	C484.964996,41.888397 486.845703,42.383797 486.928894,43.090736 
	C487.139801,44.882931 486.544495,46.770000 485.838806,48.684582 
z"/>
</svg>